<svg width="105" height="51" viewBox="0 0 105 51" fill="none" xmlns="http://www.w3.org/2000/svg">
<g clip-path="url(#clip0_788_110)">
<path d="M81.1271 26.0277H81.0865L78.651 27.7163C78.5536 27.7975 78.4399 27.7163 78.4399 27.6027V26.7908C78.437 26.7345 78.448 26.6783 78.4721 26.6273C78.4962 26.5763 78.5326 26.5321 78.5779 26.4986L81.0135 24.7287C81.0919 24.6525 81.1964 24.6089 81.3057 24.607H81.9958C82.0217 24.6058 82.0475 24.6101 82.0717 24.6194C82.0959 24.6288 82.1178 24.6431 82.1361 24.6615C82.1545 24.6798 82.1688 24.7017 82.1782 24.7259C82.1875 24.7501 82.1918 24.7759 82.1906 24.8018V37.6614C82.1918 37.6873 82.1875 37.7132 82.1782 37.7373C82.1688 37.7615 82.1545 37.7834 82.1361 37.8017C82.1178 37.8201 82.0959 37.8344 82.0717 37.8438C82.0475 37.8532 82.0217 37.8574 81.9958 37.8563H81.3301C81.3045 37.8575 81.279 37.8533 81.2552 37.8438C81.2314 37.8344 81.21 37.8199 81.1923 37.8014C81.1745 37.783 81.161 37.7609 81.1526 37.7367C81.1441 37.7126 81.141 37.6869 81.1434 37.6614L81.1271 26.0277Z" fill="#03A79D"/>
<path d="M86.0547 31.2235C86.0547 28.0492 86.1927 27.2536 86.347 26.7827C86.6053 26.0867 87.0705 25.4863 87.68 25.0624C88.2896 24.6385 89.0142 24.4113 89.7567 24.4113C90.4991 24.4113 91.2238 24.6385 91.8334 25.0624C92.4429 25.4863 92.9081 26.0867 93.1664 26.7827C93.3207 27.2536 93.4587 28.0492 93.4587 31.2235C93.4587 34.3978 93.3207 35.2015 93.1664 35.6724C92.9081 36.3684 92.4429 36.9687 91.8334 37.3927C91.2238 37.8166 90.4991 38.0438 89.7567 38.0438C89.0142 38.0438 88.2896 37.8166 87.68 37.3927C87.0705 36.9687 86.6053 36.3684 86.347 35.6724C86.1521 35.2015 86.0547 34.4059 86.0547 31.2235ZM89.7567 37.0525C90.2797 37.0982 90.8024 36.9614 91.236 36.6654C91.6696 36.3695 91.9874 35.9325 92.1354 35.4288C92.2734 34.9985 92.4033 34.276 92.4033 31.2154C92.4033 28.1547 92.2734 27.4403 92.1354 27.01C91.947 26.5328 91.6194 26.1232 91.1952 25.8346C90.771 25.546 90.2698 25.3916 89.7567 25.3916C89.2436 25.3916 88.7424 25.546 88.3182 25.8346C87.894 26.1232 87.5664 26.5328 87.378 27.01C87.24 27.4403 87.102 28.1628 87.102 31.2154C87.102 34.2679 87.24 34.9985 87.378 35.4288C87.5246 35.9252 87.8363 36.3567 88.2614 36.652C88.6866 36.9472 89.1998 37.0885 89.7161 37.0525H89.7567Z" fill="#03A79D"/>
<path d="M96.3828 31.2235C96.3828 28.0492 96.5127 27.2536 96.6751 26.7827C96.9334 26.0867 97.3986 25.4863 98.0082 25.0624C98.6177 24.6385 99.3424 24.4113 100.085 24.4113C100.827 24.4113 101.552 24.6385 102.161 25.0624C102.771 25.4863 103.236 26.0867 103.495 26.7827C103.649 27.2536 103.787 28.0492 103.787 31.2235C103.787 34.3978 103.649 35.2015 103.495 35.6724C103.236 36.3684 102.771 36.9687 102.161 37.3927C101.552 37.8166 100.827 38.0438 100.085 38.0438C99.3424 38.0438 98.6177 37.8166 98.0082 37.3927C97.3986 36.9687 96.9334 36.3684 96.6751 35.6724C96.5127 35.2015 96.3828 34.4059 96.3828 31.2235ZM100.085 37.0525C100.608 37.0982 101.131 36.9614 101.564 36.6654C101.998 36.3695 102.316 35.9325 102.464 35.4288C102.593 34.9985 102.731 34.276 102.731 31.2154C102.731 28.1547 102.593 27.4403 102.464 27.01C102.275 26.5328 101.948 26.1232 101.523 25.8346C101.099 25.546 100.598 25.3916 100.085 25.3916C99.5717 25.3916 99.0705 25.546 98.6463 25.8346C98.2221 26.1232 97.8945 26.5328 97.7061 27.01C97.5681 27.4403 97.4301 28.1628 97.4301 31.2154C97.4301 34.2679 97.5681 34.9985 97.7061 35.4288C97.8528 35.9333 98.1702 36.3712 98.6042 36.6674C99.0381 36.9636 99.5615 37.0998 100.085 37.0525Z" fill="#03A79D"/>
<path d="M29.8922 49.6848C29.8648 49.6549 29.8496 49.6158 29.8496 49.5752C29.8496 49.5346 29.8648 49.4955 29.8922 49.4656L30.8014 48.4183C30.8136 48.4031 30.8291 48.3908 30.8466 48.3823C30.8642 48.3739 30.8834 48.3695 30.9029 48.3695C30.9224 48.3695 30.9417 48.3739 30.9592 48.3823C30.9768 48.3908 30.9922 48.4031 31.0044 48.4183C31.7619 49.063 32.7139 49.4346 33.7078 49.4737C34.8931 49.4737 35.5832 48.873 35.5832 48.0368C35.5832 47.3223 35.1448 46.8515 33.7647 46.6647L33.237 46.5917C31.3291 46.3238 30.2413 45.4064 30.2413 43.7502C30.2413 41.956 31.5565 40.7545 33.6104 40.7545C34.7713 40.7355 35.9082 41.0851 36.8578 41.7531C36.9309 41.8099 36.939 41.8667 36.8578 41.956L36.119 43.0277C36.109 43.0444 36.0958 43.0589 36.0801 43.0704C36.0645 43.0819 36.0467 43.0901 36.0278 43.0947C36.0089 43.0992 35.9893 43.0999 35.9701 43.0968C35.9509 43.0936 35.9325 43.0867 35.9161 43.0764C35.2224 42.5676 34.3892 42.2842 33.5292 42.2645C32.5226 42.2645 31.9705 42.8247 31.9705 43.596C31.9705 44.3672 32.4495 44.7488 33.7971 44.9436L34.3167 45.0167C36.2327 45.2765 37.2881 46.1858 37.2881 47.8906C37.2881 49.5955 36.0135 50.9756 33.5455 50.9756C32.2128 50.9943 30.9173 50.5366 29.8922 49.6848V49.6848Z" fill="#03A79D"/>
<path d="M41.5657 50.8458C41.5462 50.8469 41.5266 50.844 41.5084 50.837C41.4901 50.8301 41.4735 50.8194 41.4597 50.8056C41.4459 50.7918 41.4352 50.7752 41.4282 50.7569C41.4213 50.7386 41.4183 50.7191 41.4195 50.6996V42.5406C41.4208 42.5286 41.4194 42.5164 41.4153 42.505C41.4113 42.4935 41.4048 42.4832 41.3962 42.4746C41.3876 42.4661 41.3773 42.4595 41.3659 42.4555C41.3544 42.4514 41.3423 42.45 41.3302 42.4513H38.7323C38.7128 42.4525 38.6933 42.4495 38.675 42.4426C38.6568 42.4357 38.6402 42.4249 38.6264 42.4111C38.6125 42.3973 38.6018 42.3807 38.5949 42.3625C38.588 42.3442 38.585 42.3247 38.5862 42.3052V41.0468C38.585 41.0273 38.588 41.0078 38.5949 40.9895C38.6018 40.9712 38.6125 40.9547 38.6264 40.9408C38.6402 40.927 38.6568 40.9163 38.675 40.9094C38.6933 40.9025 38.7128 40.8995 38.7323 40.9007H45.836C45.8555 40.8995 45.875 40.9025 45.8932 40.9094C45.9115 40.9163 45.9281 40.927 45.9419 40.9408C45.9557 40.9547 45.9665 40.9712 45.9734 40.9895C45.9803 41.0078 45.9833 41.0273 45.9821 41.0468V42.3052C45.9833 42.3247 45.9803 42.3442 45.9734 42.3625C45.9665 42.3807 45.9557 42.3973 45.9419 42.4111C45.9281 42.4249 45.9115 42.4357 45.8932 42.4426C45.875 42.4495 45.8555 42.4525 45.836 42.4513H43.2299C43.2179 42.45 43.2057 42.4514 43.1943 42.4555C43.1829 42.4595 43.1725 42.4661 43.164 42.4746C43.1554 42.4832 43.1489 42.4935 43.1448 42.505C43.1408 42.5164 43.1394 42.5286 43.1406 42.5406V50.6996C43.1418 50.7191 43.1389 50.7386 43.1319 50.7569C43.125 50.7752 43.1143 50.7918 43.1005 50.8056C43.0867 50.8194 43.0701 50.8301 43.0518 50.837C43.0335 50.844 43.014 50.8469 42.9945 50.8458H41.5657Z" fill="#03A79D"/>
<path d="M49.4568 41.0468C49.4662 41.0046 49.4899 40.9669 49.524 40.9403C49.558 40.9136 49.6003 40.8996 49.6435 40.9007H50.9912C51.0348 40.898 51.0779 40.9114 51.1123 40.9383C51.1467 40.9652 51.17 41.0038 51.1779 41.0468L54.547 50.6996C54.547 50.7808 54.547 50.8458 54.4415 50.8458H53.0126C52.9681 50.8488 52.9239 50.8356 52.8881 50.8088C52.8524 50.782 52.8274 50.7433 52.8178 50.6996L52.1602 48.7674H48.4176L47.76 50.6996C47.7522 50.7426 47.7288 50.7812 47.6944 50.8081C47.66 50.8351 47.6169 50.8485 47.5733 50.8458H46.1526C46.0551 50.8458 46.0227 50.7808 46.0551 50.6996L49.4568 41.0468ZM51.6325 47.2331L50.3336 43.3687L49.0021 47.2331H51.6325Z" fill="#03A79D"/>
<path d="M61.9121 50.8457C61.8642 50.8514 61.8157 50.8399 61.7756 50.8131C61.7354 50.7863 61.7061 50.7461 61.6929 50.6996L59.7932 46.819H58.0802C58.0682 46.8177 58.056 46.8192 58.0446 46.8232C58.0331 46.8272 58.0228 46.8338 58.0142 46.8423C58.0057 46.8509 57.9991 46.8613 57.9951 46.8727C57.991 46.8841 57.9896 46.8963 57.9909 46.9083V50.6996C57.9921 50.7191 57.9891 50.7386 57.9822 50.7569C57.9753 50.7752 57.9645 50.7918 57.9507 50.8056C57.9369 50.8194 57.9203 50.8301 57.9021 50.837C57.8838 50.844 57.8643 50.8469 57.8448 50.8457H56.4159C56.3964 50.8469 56.3769 50.844 56.3586 50.837C56.3404 50.8301 56.3238 50.8194 56.31 50.8056C56.2961 50.7918 56.2854 50.7752 56.2785 50.7569C56.2716 50.7386 56.2686 50.7191 56.2698 50.6996V41.0468C56.2686 41.0273 56.2716 41.0078 56.2785 40.9895C56.2854 40.9712 56.2961 40.9546 56.31 40.9408C56.3238 40.927 56.3404 40.9163 56.3586 40.9094C56.3769 40.9024 56.3964 40.8995 56.4159 40.9007H60.2559C60.6604 40.8718 61.0665 40.9262 61.4491 41.0606C61.8317 41.195 62.1826 41.4065 62.4802 41.682C62.7778 41.9574 63.0156 42.2911 63.179 42.6622C63.3424 43.0333 63.4279 43.434 63.4302 43.8395C63.4437 44.4347 63.2688 45.0188 62.9306 45.5087C62.5924 45.9985 62.1081 46.3691 61.5468 46.5673L63.6332 50.6265C63.6468 50.6446 63.655 50.6662 63.6571 50.6887C63.6591 50.7112 63.6548 50.7338 63.6447 50.7541C63.6346 50.7743 63.619 50.7913 63.5998 50.8032C63.5806 50.8151 63.5584 50.8214 63.5358 50.8214L61.9121 50.8457ZM61.701 43.8395C61.7078 43.6427 61.6724 43.4467 61.5971 43.2646C61.5219 43.0826 61.4086 42.9188 61.2647 42.7842C61.1209 42.6497 60.95 42.5474 60.7634 42.4844C60.5768 42.4214 60.3788 42.399 60.1829 42.4188H58.0802C58.0682 42.4175 58.056 42.419 58.0446 42.423C58.0331 42.427 58.0228 42.4336 58.0142 42.4421C58.0057 42.4507 57.9991 42.4611 57.9951 42.4725C57.991 42.4839 57.9896 42.4961 57.9909 42.5081V45.1547C57.9909 45.2115 57.9909 45.2359 58.0802 45.2359H60.1991C60.3917 45.253 60.5857 45.2294 60.7686 45.1667C60.9515 45.104 61.1192 45.0036 61.2608 44.8719C61.4024 44.7403 61.5148 44.5804 61.5906 44.4025C61.6664 44.2247 61.704 44.0329 61.701 43.8395V43.8395Z" fill="#03A79D"/>
<path d="M65.678 41.0468C65.6768 41.0273 65.6798 41.0078 65.6867 40.9895C65.6936 40.9712 65.7043 40.9547 65.7182 40.9408C65.732 40.927 65.7486 40.9163 65.7668 40.9094C65.7851 40.9025 65.8046 40.8995 65.8241 40.9007H67.253C67.2725 40.8995 67.292 40.9025 67.3103 40.9094C67.3285 40.9163 67.3451 40.927 67.3589 40.9408C67.3727 40.9547 67.3835 40.9712 67.3904 40.9895C67.3973 41.0078 67.4003 41.0273 67.3991 41.0468V49.1653C67.3978 49.1773 67.3993 49.1895 67.4033 49.2009C67.4073 49.2123 67.4139 49.2227 67.4224 49.2312C67.431 49.2398 67.4414 49.2463 67.4528 49.2504C67.4642 49.2544 67.4764 49.2558 67.4884 49.2546H72.051C72.0705 49.2534 72.09 49.2563 72.1083 49.2633C72.1265 49.2702 72.1431 49.2809 72.1569 49.2947C72.1707 49.3085 72.1815 49.3251 72.1884 49.3434C72.1953 49.3617 72.1983 49.3812 72.1971 49.4007V50.659C72.1983 50.6785 72.1953 50.6981 72.1884 50.7163C72.1815 50.7346 72.1707 50.7512 72.1569 50.765C72.1431 50.7788 72.1265 50.7895 72.1083 50.7965C72.09 50.8034 72.0705 50.8064 72.051 50.8052H65.8241C65.8046 50.8064 65.7851 50.8034 65.7668 50.7965C65.7486 50.7895 65.732 50.7788 65.7182 50.765C65.7043 50.7512 65.6936 50.7346 65.6867 50.7163C65.6798 50.6981 65.6768 50.6785 65.678 50.659V41.0468Z" fill="#03A79D"/>
<path d="M74.0081 41.0468C74.0069 41.0273 74.0098 41.0078 74.0168 40.9895C74.0237 40.9712 74.0344 40.9547 74.0482 40.9408C74.062 40.927 74.0786 40.9163 74.0969 40.9094C74.1152 40.9025 74.1347 40.8995 74.1542 40.9007H75.583C75.6025 40.8995 75.6221 40.9025 75.6403 40.9094C75.6586 40.9163 75.6752 40.927 75.689 40.9408C75.7028 40.9547 75.7135 40.9712 75.7205 40.9895C75.7274 41.0078 75.7304 41.0273 75.7292 41.0468V50.6996C75.7304 50.7191 75.7274 50.7386 75.7205 50.7569C75.7135 50.7752 75.7028 50.7918 75.689 50.8056C75.6752 50.8194 75.6586 50.8301 75.6403 50.837C75.6221 50.844 75.6025 50.8469 75.583 50.8458H74.1542C74.1347 50.8469 74.1152 50.844 74.0969 50.837C74.0786 50.8301 74.062 50.8194 74.0482 50.8056C74.0344 50.7918 74.0237 50.7752 74.0168 50.7569C74.0098 50.7386 74.0069 50.7191 74.0081 50.6996V41.0468Z" fill="#03A79D"/>
<path d="M78.2854 41.0468C78.2842 41.0273 78.2872 41.0078 78.2941 40.9895C78.301 40.9712 78.3118 40.9547 78.3256 40.9408C78.3394 40.927 78.356 40.9163 78.3742 40.9094C78.3925 40.9025 78.412 40.8995 78.4315 40.9007H79.7792C79.8306 40.8992 79.8814 40.9121 79.9259 40.9379C79.9703 40.9637 80.0067 41.0014 80.0309 41.0468L84.0901 47.9069H84.1469V41.0468C84.1457 41.0273 84.1487 41.0078 84.1556 40.9895C84.1625 40.9712 84.1733 40.9547 84.1871 40.9408C84.2009 40.927 84.2175 40.9163 84.2357 40.9094C84.254 40.9025 84.2735 40.8995 84.293 40.9007H85.5676C85.5871 40.8995 85.6067 40.9025 85.6249 40.9094C85.6432 40.9163 85.6598 40.927 85.6736 40.9408C85.6874 40.9547 85.6981 40.9712 85.705 40.9895C85.712 41.0078 85.7149 41.0273 85.7138 41.0468V50.6996C85.7149 50.7191 85.712 50.7386 85.705 50.7569C85.6981 50.7752 85.6874 50.7918 85.6736 50.8056C85.6598 50.8194 85.6432 50.8301 85.6249 50.837C85.6067 50.844 85.5871 50.8469 85.5676 50.8458H84.2362C84.1858 50.8477 84.1359 50.8349 84.0927 50.8089C84.0494 50.783 84.0147 50.745 83.9927 50.6996L79.9334 43.8558H79.8766V50.6996C79.8778 50.7191 79.8748 50.7386 79.8679 50.7569C79.861 50.7752 79.8503 50.7918 79.8365 50.8056C79.8226 50.8194 79.806 50.8301 79.7878 50.837C79.7695 50.844 79.75 50.8469 79.7305 50.8458H78.4315C78.3928 50.8458 78.3556 50.8304 78.3282 50.8029C78.3008 50.7755 78.2854 50.7384 78.2854 50.6996V41.0468Z" fill="#03A79D"/>
<path d="M87.9641 45.8692C87.8955 44.9517 87.9833 44.0293 88.2239 43.1414C88.4495 42.3905 88.9253 41.7394 89.5722 41.2963C90.219 40.8532 90.9981 40.6449 91.7798 40.7058C92.5051 40.6549 93.2283 40.8307 93.8494 41.2088C94.4704 41.587 94.9586 42.1488 95.2463 42.8166C95.2602 42.8528 95.2613 42.8926 95.2495 42.9295C95.2377 42.9664 95.2136 42.9982 95.1814 43.0196L93.9555 43.5554C93.9385 43.5634 93.9201 43.5678 93.9013 43.5685C93.8826 43.5691 93.8639 43.5659 93.8464 43.5591C93.8289 43.5522 93.813 43.5419 93.7997 43.5287C93.7863 43.5155 93.7758 43.4997 93.7688 43.4823C93.5864 43.105 93.2963 42.7902 92.935 42.5778C92.5737 42.3654 92.1576 42.2648 91.7392 42.2889C91.326 42.2579 90.9148 42.37 90.5747 42.6066C90.2347 42.8432 89.9865 43.1897 89.8719 43.5879C89.6989 44.3351 89.6387 45.1041 89.6933 45.8692C89.6387 46.6342 89.6989 47.4032 89.8719 48.1504C89.9863 48.5493 90.2341 48.8968 90.574 49.1347C90.9139 49.3726 91.3253 49.4866 91.7392 49.4575C92.1464 49.4823 92.5506 49.3737 92.8905 49.1481C93.2304 48.9225 93.4874 48.5922 93.6226 48.2073C93.7465 47.7914 93.8013 47.3581 93.785 46.9246C93.7863 46.9125 93.7849 46.9003 93.7808 46.8889C93.7768 46.8775 93.7702 46.8671 93.7617 46.8586C93.7531 46.85 93.7428 46.8435 93.7313 46.8394C93.7199 46.8354 93.7077 46.834 93.6957 46.8353H92.072C92.0525 46.8364 92.033 46.8335 92.0147 46.8265C91.9965 46.8196 91.9799 46.8089 91.9661 46.7951C91.9522 46.7813 91.9415 46.7647 91.9346 46.7464C91.9277 46.7281 91.9247 46.7086 91.9259 46.6891V45.5201C91.9247 45.5006 91.9277 45.481 91.9346 45.4628C91.9415 45.4445 91.9522 45.4279 91.9661 45.4141C91.9799 45.4003 91.9965 45.3896 92.0147 45.3826C92.033 45.3757 92.0525 45.3727 92.072 45.3739H95.3194C95.3389 45.3727 95.3584 45.3757 95.3767 45.3826C95.395 45.3896 95.4115 45.4003 95.4254 45.4141C95.4392 45.4279 95.4499 45.4445 95.4568 45.4628C95.4637 45.481 95.4667 45.5006 95.4655 45.5201V46.3806C95.4855 47.1158 95.4064 47.8504 95.2301 48.5645C94.9525 49.2752 94.4669 49.8856 93.8369 50.316C93.2068 50.7463 92.4616 50.9765 91.6986 50.9765C90.9356 50.9765 90.1903 50.7463 89.5603 50.316C88.9302 49.8856 88.4446 49.2752 88.167 48.5645C87.9493 47.6837 87.8807 46.7726 87.9641 45.8692V45.8692Z" fill="#03A79D"/>
<path d="M97.2586 49.6848C97.2441 49.6705 97.2326 49.6534 97.2248 49.6346C97.2169 49.6158 97.2129 49.5956 97.2129 49.5752C97.2129 49.5548 97.2169 49.5346 97.2248 49.5158C97.2326 49.497 97.2441 49.48 97.2586 49.4656L98.1679 48.4183C98.18 48.4031 98.1955 48.3908 98.213 48.3824C98.2306 48.3739 98.2498 48.3695 98.2693 48.3695C98.2888 48.3695 98.3081 48.3739 98.3256 48.3824C98.3432 48.3908 98.3587 48.4031 98.3708 48.4183C99.1283 49.063 100.08 49.4346 101.074 49.4737C102.26 49.4737 102.941 48.873 102.941 48.0368C102.941 47.3223 102.503 46.8515 101.131 46.6648L100.603 46.5917C98.6956 46.3238 97.6077 45.4064 97.6077 43.7502C97.6077 41.9561 98.9229 40.7545 100.969 40.7545C102.13 40.7327 103.268 41.0826 104.216 41.7531C104.231 41.7653 104.244 41.7807 104.252 41.7983C104.261 41.8158 104.265 41.8351 104.265 41.8546C104.265 41.8741 104.261 41.8933 104.252 41.9109C104.244 41.9285 104.231 41.9439 104.216 41.9561L103.485 43.0277C103.462 43.0604 103.428 43.0834 103.389 43.0924C103.35 43.1014 103.309 43.0957 103.274 43.0764C102.584 42.5678 101.753 42.2843 100.896 42.2646C99.889 42.2646 99.3288 42.8247 99.3288 43.596C99.3288 44.3672 99.8159 44.7488 101.155 44.9436L101.683 45.0167C103.599 45.2765 104.654 46.1858 104.654 47.8906C104.654 49.5955 103.38 50.9756 100.912 50.9756C99.5792 50.9943 98.2837 50.5366 97.2586 49.6848V49.6848Z" fill="#03A79D"/>
<path d="M5.78844 4.15665C6.76877 3.21688 7.85914 2.3991 9.03582 1.72112C10.9274 0.617015 14.7999 0.503357 14.7999 0.503357L10.3835 3.08502L8.11843 6.2918C8.432 7.28864 8.95829 8.2055 9.66093 8.979C10.5384 9.62178 11.6015 9.96095 12.6891 9.9451C12.1225 10.2736 11.6012 10.6748 11.1385 11.1385C10.9131 11.4278 10.73 11.7476 10.5946 12.0884L9.10888 9.74213L6.00764 8.1834L2.43553 10.554L0 14.3047C0.173244 12.7727 0.494058 11.2611 0.957975 9.79085C1.73842 8.19149 2.84452 6.77291 4.20535 5.62609L3.6127 4.05923L2.1595 3.02819C2.9563 2.97639 3.75629 3.05036 4.53009 3.24739C4.98779 3.49367 5.41092 3.79941 5.78844 4.15665Z" fill="#03A79D"/>
<path d="M19.6469 3.37728C20.4736 2.56614 21.3949 1.85745 22.391 1.26648C24.039 0.357218 27.3351 0.251678 27.3351 0.251678L23.5438 2.43554L21.636 5.1958C21.9037 6.04747 22.3523 6.8312 22.9511 7.49332C23.7015 8.03562 24.6072 8.32043 25.5328 8.30516C25.0479 8.5854 24.6029 8.92945 24.2095 9.32809C24.0192 9.57646 23.8635 9.84958 23.7468 10.1399L22.4803 8.11844L19.8418 6.81137L16.8136 8.84098L14.7109 12.0315C14.8563 10.7256 15.1282 9.4368 15.5228 8.18339C16.1897 6.81938 17.1324 5.60857 18.2912 4.62751L17.7878 3.28797L16.5457 2.43554C17.2257 2.37891 17.9104 2.42821 18.5753 2.58167C18.9645 2.80081 19.3246 3.06812 19.6469 3.37728V3.37728Z" fill="#03A79D"/>
<path d="M5.05741 17.2273C5.88107 16.415 6.80286 15.7087 7.80144 15.1246C9.42512 14.2073 12.7374 14.1098 12.7374 14.1098L8.97861 16.318L7.04642 19.054C7.31306 19.9037 7.76189 20.685 8.36161 21.3434C9.10975 21.8899 10.0169 22.1752 10.9433 22.1552C10.4604 22.4384 10.0157 22.7821 9.61996 23.1781C9.42794 23.4254 9.27213 23.6987 9.15721 23.99L7.88262 22.0091L5.24413 20.6614L2.22407 22.7316L0.113281 25.8897C0.263563 24.5818 0.535352 23.2908 0.925124 22.0334C1.59483 20.6712 2.53707 19.4609 3.69351 18.4776L3.19829 17.1461L1.95617 16.2369C2.6335 16.1803 3.3155 16.2296 3.97765 16.383C4.37317 16.6157 4.73623 16.8996 5.05741 17.2273V17.2273Z" fill="#03A79D"/>
<path d="M4.45784 28.171C5.14644 27.4951 5.91531 26.9061 6.74724 26.4174C8.11926 25.6542 10.8633 25.6055 10.8633 25.6055L7.72957 27.4159L6.10588 29.6972C6.33037 30.4043 6.70413 31.0549 7.20187 31.6051C7.82788 32.0622 8.58637 32.3017 9.36137 32.287C8.95961 32.5085 8.58845 32.7814 8.25727 33.0988C8.09496 33.306 7.96369 33.5358 7.86758 33.7808L6.81219 32.1571L4.62021 31.0368L2.09538 32.7335L0.341797 35.3882C0.4609 34.2859 0.68934 33.198 1.02375 32.1409C1.58345 31.021 2.36838 30.0288 3.32938 29.2264L2.90722 28.106L1.87618 27.3753C2.44239 27.3322 3.01187 27.376 3.56481 27.5052C3.88968 27.6881 4.1898 27.9118 4.45784 28.171V28.171Z" fill="#03A79D"/>
<path d="M3.97848 37.4097C4.56701 36.8312 5.22406 36.3268 5.93502 35.9078C7.05954 35.4578 8.25564 35.2131 9.46654 35.1853L6.77934 36.7602L5.3992 38.7168C5.58831 39.3214 5.91005 39.8761 6.34094 40.3405C6.87209 40.7308 7.51663 40.9362 8.17571 40.925C7.83216 41.1278 7.51572 41.3733 7.23397 41.6557C7.09958 41.8274 6.98773 42.0157 6.90111 42.2158L5.99997 40.8276L4.11649 39.8615L1.95699 41.3147L0.455078 43.5879C0.561039 42.6572 0.754019 41.7385 1.03149 40.8438C1.51059 39.87 2.18486 39.005 3.01238 38.3028L2.65517 37.3448L1.77026 36.7197C2.2657 36.6799 2.7643 36.7182 3.24782 36.8333C3.515 36.9934 3.76055 37.1872 3.97848 37.4097V37.4097Z" fill="#03A79D"/>
<path d="M14.1425 34.7469C14.6453 34.2524 15.207 33.8216 15.8149 33.4642C16.7714 33.0812 17.7887 32.8722 18.8187 32.8472L16.5293 34.1949L15.3521 35.8591C15.5179 36.3781 15.795 36.8547 16.164 37.2555C16.6173 37.589 17.1682 37.7631 17.7308 37.7507C17.4349 37.924 17.1621 38.134 16.919 38.3758C16.8035 38.5281 16.708 38.6945 16.6349 38.8711L15.8636 37.6614L14.2399 36.8496L12.4214 38.0755L11.1387 40.0158C11.2271 39.2195 11.393 38.4337 11.6339 37.6695C12.0377 36.8406 12.6101 36.1051 13.3144 35.51L13.014 34.6982L12.259 34.1624C12.6698 34.1275 13.0835 34.1577 13.4849 34.2517C13.7257 34.3859 13.947 34.5525 14.1425 34.7469Z" fill="#03A79D"/>
<path d="M26.5711 22.9427C27.0736 22.4478 27.6353 22.0169 28.2435 21.66C29.2015 21.2724 30.2223 21.0633 31.2555 21.043L28.958 22.3825L27.7808 24.0549C27.9492 24.5703 28.2261 25.0436 28.5926 25.4432C29.0491 25.7775 29.6019 25.9541 30.1676 25.9465C29.8714 26.1193 29.5985 26.3294 29.3558 26.5716C29.2421 26.7207 29.1493 26.8846 29.0797 27.0587L28.2679 25.8491L26.6442 25.0372L24.8013 26.2712L23.543 28.2115C23.6314 27.4152 23.7973 26.6295 24.0382 25.8653C24.442 25.0364 25.0144 24.3009 25.7187 23.7058L25.4183 22.894L24.6633 22.3582C25.0772 22.3281 25.4933 22.361 25.8973 22.4556C26.1426 22.5873 26.3692 22.7511 26.5711 22.9427V22.9427Z" fill="#03A79D"/>
<path d="M16.237 25.1184C16.8274 24.5386 17.4873 24.0341 18.2017 23.6165C19.3233 23.1661 20.5168 22.9214 21.7251 22.894L19.0379 24.469L17.6577 26.4174C17.8524 27.0195 18.1735 27.5731 18.5995 28.0411C19.1334 28.432 19.7807 28.6374 20.4424 28.6256C20.0958 28.8275 19.7765 29.073 19.4925 29.3563C19.3572 29.5333 19.2454 29.727 19.1597 29.9327L18.2585 28.5119L16.4075 27.6027L14.248 29.0559L12.7461 31.329C12.8511 30.3975 13.0468 29.4784 13.3306 28.585C13.7947 27.5855 14.4674 26.6969 15.3034 25.979L14.9462 25.0291L14.0613 24.404C14.5455 24.3604 15.0336 24.3961 15.5064 24.5095C15.7755 24.6797 16.0211 24.8844 16.237 25.1184Z" fill="#03A79D"/>
<path d="M30.9397 12.7865C31.5282 12.208 32.1853 11.7036 32.8963 11.2846C34.0173 10.8314 35.2108 10.5839 36.4197 10.554L33.7325 12.1776L32.3523 14.1342C32.5451 14.7372 32.8664 15.2911 33.2941 15.7579C33.826 16.1527 34.4747 16.3584 35.1369 16.3424C34.7904 16.5439 34.4735 16.7926 34.1952 17.0812C34.0584 17.2572 33.9464 17.4511 33.8624 17.6576L32.9531 16.2369L31.0696 15.2708L28.9182 16.724L27.4082 19.0052C27.5127 18.0657 27.7085 17.1385 27.9927 16.2369C28.4662 15.264 29.1382 14.4012 29.9655 13.7039L29.6083 12.7459L28.7234 12.1208C29.2076 12.0817 29.695 12.1173 30.1685 12.2264C30.448 12.38 30.7071 12.5682 30.9397 12.7865V12.7865Z" fill="#03A79D"/>
<path d="M45.1132 2.22445C45.7068 1.64487 46.3694 1.14046 47.086 0.722541C48.2055 0.274435 49.3959 0.029751 50.6013 0L47.8979 1.57498L46.5177 3.5234C46.7124 4.12555 47.0335 4.67914 47.4595 5.14709C47.9934 5.53806 48.6407 5.74337 49.3024 5.73161C48.9558 5.9335 48.6365 6.17906 48.3525 6.46227C48.2185 6.63874 48.1093 6.83267 48.0278 7.03868L47.1347 5.63419L45.2513 4.67622L43.0918 6.12942L41.5898 8.40258C41.7096 7.4779 41.9189 6.56706 42.215 5.6829C42.6868 4.70676 43.359 3.84094 44.1877 3.14183L43.8305 2.19198L42.905 1.5425C43.3879 1.49094 43.876 1.51836 44.3501 1.62369C44.6301 1.789 44.8868 1.99105 45.1132 2.22445V2.22445Z" fill="#03A79D"/>
<path d="M33.8778 2.63848C34.5664 1.96259 35.3352 1.37366 36.1672 0.884902C37.5311 0.12177 40.2832 0.0730591 40.2832 0.0730591L37.1495 1.88347L35.5258 4.15663C35.75 4.86805 36.1268 5.52193 36.6299 6.07258C37.2498 6.52957 38.0032 6.76928 38.7732 6.75453C38.3728 6.97809 38.0018 7.25082 37.6691 7.56637C37.5121 7.77274 37.3837 7.99941 37.2875 8.2402L36.2321 6.61652L34.032 5.50429L31.5153 7.19293L29.7617 9.85577C29.8811 8.75412 30.1068 7.6666 30.4355 6.6084C30.994 5.47152 31.7818 4.46259 32.7493 3.64517L32.3271 2.52483L31.2961 1.79417C31.8623 1.751 32.4318 1.7948 32.9847 1.92406C33.3124 2.12203 33.6127 2.36223 33.8778 2.63848V2.63848Z" fill="#03A79D"/>
<path d="M18.8195 14.0287C19.5075 13.3498 20.2764 12.7581 21.1089 12.267C22.4809 11.5119 25.233 11.4551 25.233 11.4551L22.0831 13.2655L20.4594 15.5468C20.6783 16.2563 21.0527 16.9081 21.5554 17.4546C22.1786 17.9111 22.9344 18.1507 23.7068 18.1366C23.3011 18.3716 22.9296 18.6611 22.6027 18.9971C22.443 19.2031 22.3119 19.4298 22.213 19.671L21.1576 18.0067L18.9737 16.8863L16.457 18.5831L14.6953 21.2459C14.8197 20.1444 15.048 19.0571 15.3773 17.9986C15.9313 16.8612 16.7166 15.8519 17.6829 15.0353L17.2689 13.9231L16.2378 13.2249C16.8036 13.177 17.3734 13.2181 17.9264 13.3467C18.2517 13.5354 18.5518 13.7645 18.8195 14.0287Z" fill="#03A79D"/>
<path d="M3.5803 45.5038C4.08127 45.0107 4.64009 44.5799 5.24458 44.2211C6.20403 43.8385 7.22389 43.6296 8.25651 43.6041L5.96712 44.9518L4.78994 46.616C4.95735 47.1343 5.23422 47.6105 5.60179 48.0124C6.05814 48.346 6.61163 48.52 7.17676 48.5076C6.87927 48.6786 6.6062 48.8888 6.36492 49.1327C6.246 49.2827 6.15022 49.4496 6.08077 49.628L5.26893 48.4183L3.64524 47.6065L1.85107 48.8324L0.568359 50.7727C0.660739 49.977 0.82652 49.1916 1.06358 48.4264C1.47289 47.6011 2.04769 46.8687 2.75222 46.2751L2.4356 45.4632L1.68058 44.9274C2.09406 44.8925 2.51045 44.9226 2.91459 45.0167C3.15778 45.1478 3.38178 45.3117 3.5803 45.5038V45.5038Z" fill="#03A79D"/>
</g>
<defs>
<clipPath id="clip0_788_110">
<rect width="104.655" height="51" fill="white"/>
</clipPath>
</defs>
</svg>
