<svg width="51" height="51" viewBox="0 0 51 51" fill="none" xmlns="http://www.w3.org/2000/svg">
<path d="M5.78844 4.15665C6.76877 3.21688 7.85914 2.3991 9.03582 1.72112C10.9274 0.617015 14.7999 0.503357 14.7999 0.503357L10.3835 3.08502L8.11843 6.2918C8.432 7.28864 8.95829 8.2055 9.66093 8.979C10.5384 9.62178 11.6015 9.96095 12.6891 9.9451C12.1225 10.2736 11.6012 10.6748 11.1385 11.1385C10.9131 11.4278 10.73 11.7476 10.5946 12.0884L9.10888 9.74213L6.00764 8.1834L2.43553 10.554L0 14.3047C0.173244 12.7727 0.494058 11.2611 0.957975 9.79085C1.73842 8.19149 2.84452 6.77291 4.20535 5.62609L3.6127 4.05923L2.1595 3.02819C2.9563 2.97639 3.75629 3.05036 4.53009 3.24739C4.98779 3.49367 5.41092 3.79941 5.78844 4.15665Z" fill="#03A79D"/>
<path d="M19.6469 3.37728C20.4736 2.56614 21.3949 1.85745 22.391 1.26648C24.039 0.357218 27.3351 0.251678 27.3351 0.251678L23.5438 2.43554L21.636 5.1958C21.9037 6.04747 22.3523 6.8312 22.9511 7.49332C23.7015 8.03562 24.6072 8.32043 25.5328 8.30516C25.0479 8.5854 24.6029 8.92945 24.2095 9.32809C24.0192 9.57646 23.8635 9.84958 23.7468 10.1399L22.4803 8.11844L19.8418 6.81137L16.8136 8.84098L14.7109 12.0315C14.8563 10.7256 15.1282 9.4368 15.5228 8.18339C16.1897 6.81938 17.1324 5.60857 18.2912 4.62751L17.7878 3.28797L16.5457 2.43554C17.2257 2.37891 17.9104 2.42821 18.5753 2.58167C18.9645 2.80081 19.3246 3.06812 19.6469 3.37728V3.37728Z" fill="#03A79D"/>
<path d="M5.05741 17.2273C5.88107 16.415 6.80286 15.7087 7.80144 15.1246C9.42512 14.2073 12.7374 14.1098 12.7374 14.1098L8.97861 16.318L7.04642 19.054C7.31306 19.9037 7.76189 20.685 8.36161 21.3434C9.10975 21.8899 10.0169 22.1752 10.9433 22.1552C10.4604 22.4384 10.0157 22.7821 9.61996 23.1781C9.42794 23.4254 9.27213 23.6987 9.15721 23.99L7.88262 22.0091L5.24413 20.6614L2.22407 22.7316L0.113281 25.8897C0.263563 24.5818 0.535352 23.2908 0.925124 22.0334C1.59483 20.6712 2.53707 19.4609 3.69351 18.4776L3.19829 17.1461L1.95617 16.2369C2.6335 16.1803 3.3155 16.2296 3.97765 16.383C4.37317 16.6157 4.73623 16.8996 5.05741 17.2273V17.2273Z" fill="#03A79D"/>
<path d="M4.45784 28.171C5.14644 27.4951 5.91531 26.9061 6.74724 26.4174C8.11926 25.6542 10.8633 25.6055 10.8633 25.6055L7.72957 27.4159L6.10588 29.6972C6.33037 30.4043 6.70413 31.0549 7.20187 31.6051C7.82788 32.0622 8.58637 32.3017 9.36137 32.287C8.95961 32.5085 8.58845 32.7814 8.25727 33.0988C8.09496 33.306 7.96369 33.5358 7.86758 33.7808L6.81219 32.1571L4.62021 31.0368L2.09538 32.7335L0.341797 35.3882C0.4609 34.2859 0.68934 33.198 1.02375 32.1409C1.58345 31.021 2.36838 30.0288 3.32938 29.2264L2.90722 28.106L1.87618 27.3753C2.44239 27.3322 3.01187 27.376 3.56481 27.5052C3.88968 27.6881 4.1898 27.9118 4.45784 28.171V28.171Z" fill="#03A79D"/>
<path d="M3.97848 37.4097C4.56701 36.8312 5.22406 36.3268 5.93502 35.9078C7.05954 35.4578 8.25564 35.2131 9.46654 35.1853L6.77934 36.7602L5.3992 38.7168C5.58831 39.3214 5.91005 39.8761 6.34094 40.3405C6.87209 40.7308 7.51663 40.9362 8.17571 40.925C7.83216 41.1278 7.51572 41.3733 7.23397 41.6557C7.09958 41.8274 6.98773 42.0157 6.90111 42.2158L5.99997 40.8276L4.11649 39.8615L1.95699 41.3147L0.455078 43.5879C0.561039 42.6572 0.754019 41.7385 1.03149 40.8438C1.51059 39.87 2.18486 39.005 3.01238 38.3028L2.65517 37.3448L1.77026 36.7197C2.2657 36.6799 2.7643 36.7182 3.24782 36.8333C3.515 36.9934 3.76055 37.1872 3.97848 37.4097V37.4097Z" fill="#03A79D"/>
<path d="M14.1425 34.7469C14.6453 34.2524 15.207 33.8216 15.8149 33.4642C16.7714 33.0812 17.7887 32.8722 18.8187 32.8472L16.5293 34.1949L15.3521 35.8591C15.5179 36.3781 15.795 36.8547 16.164 37.2555C16.6173 37.589 17.1682 37.7631 17.7308 37.7507C17.4349 37.924 17.1621 38.134 16.919 38.3758C16.8035 38.5281 16.708 38.6945 16.6349 38.8711L15.8636 37.6614L14.2399 36.8496L12.4214 38.0755L11.1387 40.0158C11.2271 39.2195 11.393 38.4337 11.6339 37.6695C12.0377 36.8406 12.6101 36.1051 13.3144 35.51L13.014 34.6982L12.259 34.1624C12.6698 34.1275 13.0835 34.1577 13.4849 34.2517C13.7257 34.3859 13.947 34.5525 14.1425 34.7469Z" fill="#03A79D"/>
<path d="M26.5711 22.9427C27.0736 22.4478 27.6353 22.0169 28.2435 21.66C29.2015 21.2724 30.2223 21.0633 31.2555 21.043L28.958 22.3825L27.7808 24.0549C27.9492 24.5703 28.2261 25.0436 28.5926 25.4432C29.0491 25.7775 29.6019 25.9541 30.1676 25.9465C29.8714 26.1193 29.5985 26.3294 29.3558 26.5716C29.2421 26.7207 29.1493 26.8846 29.0797 27.0587L28.2679 25.8491L26.6442 25.0372L24.8013 26.2712L23.543 28.2115C23.6314 27.4152 23.7973 26.6295 24.0382 25.8653C24.442 25.0364 25.0144 24.3009 25.7187 23.7058L25.4183 22.894L24.6633 22.3582C25.0772 22.3281 25.4933 22.361 25.8973 22.4556C26.1426 22.5873 26.3692 22.7511 26.5711 22.9427V22.9427Z" fill="#03A79D"/>
<path d="M16.237 25.1184C16.8274 24.5386 17.4873 24.0341 18.2017 23.6165C19.3233 23.1661 20.5168 22.9214 21.7251 22.894L19.0379 24.469L17.6577 26.4174C17.8524 27.0195 18.1735 27.5731 18.5995 28.0411C19.1334 28.432 19.7807 28.6374 20.4424 28.6256C20.0958 28.8275 19.7765 29.073 19.4925 29.3563C19.3572 29.5333 19.2454 29.727 19.1597 29.9327L18.2585 28.5119L16.4075 27.6027L14.248 29.0559L12.7461 31.329C12.8511 30.3975 13.0468 29.4784 13.3306 28.585C13.7947 27.5855 14.4674 26.6969 15.3034 25.979L14.9462 25.0291L14.0613 24.404C14.5455 24.3604 15.0336 24.3961 15.5064 24.5095C15.7755 24.6797 16.0211 24.8844 16.237 25.1184Z" fill="#03A79D"/>
<path d="M30.9397 12.7865C31.5282 12.208 32.1853 11.7036 32.8963 11.2846C34.0173 10.8314 35.2108 10.5839 36.4197 10.554L33.7325 12.1776L32.3523 14.1342C32.5451 14.7372 32.8664 15.2911 33.2941 15.7579C33.826 16.1527 34.4747 16.3584 35.1369 16.3424C34.7904 16.5439 34.4735 16.7926 34.1952 17.0812C34.0584 17.2572 33.9464 17.4511 33.8624 17.6576L32.9531 16.2369L31.0696 15.2708L28.9182 16.724L27.4082 19.0052C27.5127 18.0657 27.7085 17.1385 27.9927 16.2369C28.4662 15.264 29.1382 14.4012 29.9655 13.7039L29.6083 12.7459L28.7234 12.1208C29.2076 12.0817 29.695 12.1173 30.1685 12.2264C30.448 12.38 30.7071 12.5682 30.9397 12.7865V12.7865Z" fill="#03A79D"/>
<path d="M45.1132 2.22445C45.7068 1.64487 46.3694 1.14046 47.086 0.722541C48.2055 0.274435 49.3959 0.029751 50.6013 0L47.8979 1.57498L46.5177 3.5234C46.7124 4.12555 47.0335 4.67914 47.4595 5.14709C47.9934 5.53806 48.6407 5.74337 49.3024 5.73161C48.9558 5.9335 48.6365 6.17906 48.3525 6.46227C48.2185 6.63874 48.1093 6.83267 48.0278 7.03868L47.1347 5.63419L45.2513 4.67622L43.0918 6.12942L41.5898 8.40258C41.7096 7.4779 41.9189 6.56706 42.215 5.6829C42.6868 4.70676 43.359 3.84094 44.1877 3.14183L43.8305 2.19198L42.905 1.5425C43.3879 1.49094 43.876 1.51836 44.3501 1.62369C44.6301 1.789 44.8868 1.99105 45.1132 2.22445V2.22445Z" fill="#03A79D"/>
<path d="M33.8778 2.63848C34.5664 1.96259 35.3352 1.37366 36.1672 0.884902C37.5311 0.12177 40.2832 0.0730591 40.2832 0.0730591L37.1495 1.88347L35.5258 4.15663C35.75 4.86805 36.1268 5.52193 36.6299 6.07258C37.2498 6.52957 38.0032 6.76928 38.7732 6.75453C38.3728 6.97809 38.0018 7.25082 37.6691 7.56637C37.5121 7.77274 37.3837 7.99941 37.2875 8.2402L36.2321 6.61652L34.032 5.50429L31.5153 7.19293L29.7617 9.85577C29.8811 8.75412 30.1068 7.6666 30.4355 6.6084C30.994 5.47152 31.7818 4.46259 32.7493 3.64517L32.3271 2.52483L31.2961 1.79417C31.8623 1.751 32.4318 1.7948 32.9847 1.92406C33.3124 2.12203 33.6127 2.36223 33.8778 2.63848V2.63848Z" fill="#03A79D"/>
<path d="M18.8195 14.0287C19.5075 13.3498 20.2764 12.7581 21.1089 12.267C22.4809 11.5119 25.233 11.4551 25.233 11.4551L22.0831 13.2655L20.4594 15.5468C20.6783 16.2563 21.0527 16.9081 21.5554 17.4546C22.1786 17.9111 22.9344 18.1507 23.7068 18.1366C23.3011 18.3716 22.9296 18.6611 22.6027 18.9971C22.443 19.2031 22.3119 19.4298 22.213 19.671L21.1576 18.0067L18.9737 16.8863L16.457 18.5831L14.6953 21.2459C14.8197 20.1444 15.048 19.0571 15.3773 17.9986C15.9313 16.8612 16.7166 15.8519 17.6829 15.0353L17.2689 13.9231L16.2378 13.2249C16.8036 13.177 17.3734 13.2181 17.9264 13.3467C18.2517 13.5354 18.5518 13.7645 18.8195 14.0287Z" fill="#03A79D"/>
<path d="M3.5803 45.5038C4.08127 45.0107 4.64009 44.5799 5.24458 44.2211C6.20403 43.8385 7.22389 43.6296 8.25651 43.6041L5.96712 44.9518L4.78994 46.616C4.95735 47.1343 5.23422 47.6105 5.60179 48.0124C6.05814 48.346 6.61163 48.52 7.17676 48.5076C6.87927 48.6786 6.6062 48.8888 6.36492 49.1327C6.246 49.2827 6.15022 49.4496 6.08077 49.628L5.26893 48.4183L3.64524 47.6065L1.85107 48.8324L0.568359 50.7727C0.660739 49.977 0.82652 49.1916 1.06358 48.4264C1.47289 47.6011 2.04769 46.8687 2.75222 46.2751L2.4356 45.4632L1.68058 44.9274C2.09406 44.8925 2.51045 44.9226 2.91459 45.0167C3.15778 45.1478 3.38178 45.3117 3.5803 45.5038V45.5038Z" fill="#03A79D"/>
</svg>
