<svg width="160" height="160" viewBox="0 0 160 160" fill="none" xmlns="http://www.w3.org/2000/svg">
<path d="M121.396 121.471H121.334L117.611 124.053C117.462 124.177 117.288 124.053 117.288 123.879V122.638C117.283 122.552 117.3 122.466 117.337 122.388C117.374 122.31 117.429 122.242 117.499 122.191L121.222 119.485C121.342 119.369 121.502 119.302 121.669 119.299H122.724C122.764 119.297 122.803 119.304 122.84 119.318C122.877 119.333 122.911 119.354 122.939 119.382C122.967 119.41 122.989 119.444 123.003 119.481C123.017 119.518 123.024 119.557 123.022 119.597V139.257C123.024 139.297 123.017 139.336 123.003 139.373C122.989 139.41 122.967 139.444 122.939 139.472C122.911 139.5 122.877 139.522 122.84 139.536C122.803 139.55 122.764 139.557 122.724 139.555H121.706C121.667 139.557 121.628 139.551 121.592 139.536C121.556 139.522 121.523 139.5 121.496 139.471C121.469 139.443 121.448 139.409 121.435 139.372C121.422 139.335 121.417 139.296 121.421 139.257L121.396 121.471Z" fill="#03A79D"/>
<path d="M128.93 129.415C128.93 124.562 129.141 123.345 129.377 122.626C129.772 121.561 130.483 120.644 131.415 119.995C132.346 119.347 133.454 119 134.589 119C135.725 119 136.832 119.347 137.764 119.995C138.696 120.644 139.407 121.561 139.802 122.626C140.038 123.345 140.249 124.562 140.249 129.415C140.249 134.268 140.038 135.496 139.802 136.216C139.407 137.281 138.696 138.198 137.764 138.846C136.832 139.494 135.725 139.842 134.589 139.842C133.454 139.842 132.346 139.494 131.415 138.846C130.483 138.198 129.772 137.281 129.377 136.216C129.079 135.496 128.93 134.28 128.93 129.415ZM134.589 138.326C135.389 138.396 136.188 138.187 136.851 137.735C137.514 137.282 138 136.614 138.226 135.844C138.437 135.186 138.636 134.082 138.636 129.402C138.636 124.723 138.437 123.631 138.226 122.973C137.938 122.243 137.437 121.617 136.789 121.176C136.14 120.735 135.374 120.499 134.589 120.499C133.805 120.499 133.039 120.735 132.39 121.176C131.742 121.617 131.241 122.243 130.953 122.973C130.742 123.631 130.531 124.736 130.531 129.402C130.531 134.069 130.742 135.186 130.953 135.844C131.177 136.603 131.653 137.263 132.303 137.714C132.953 138.165 133.738 138.381 134.527 138.326H134.589Z" fill="#03A79D"/>
<path d="M144.717 129.415C144.717 124.562 144.915 123.345 145.164 122.626C145.559 121.561 146.27 120.644 147.202 119.995C148.134 119.347 149.241 119 150.377 119C151.512 119 152.62 119.347 153.551 119.995C154.483 120.644 155.195 121.561 155.59 122.626C155.825 123.345 156.036 124.562 156.036 129.415C156.036 134.268 155.825 135.496 155.59 136.216C155.195 137.281 154.483 138.198 153.551 138.846C152.62 139.494 151.512 139.842 150.377 139.842C149.241 139.842 148.134 139.494 147.202 138.846C146.27 138.198 145.559 137.281 145.164 136.216C144.915 135.496 144.717 134.28 144.717 129.415ZM150.377 138.326C151.176 138.396 151.975 138.187 152.638 137.735C153.301 137.282 153.787 136.614 154.013 135.844C154.212 135.186 154.423 134.082 154.423 129.402C154.423 124.723 154.212 123.631 154.013 122.973C153.725 122.243 153.224 121.617 152.576 121.176C151.927 120.735 151.161 120.499 150.377 120.499C149.592 120.499 148.826 120.735 148.177 121.176C147.529 121.617 147.028 122.243 146.74 122.973C146.529 123.631 146.318 124.736 146.318 129.402C146.318 134.069 146.529 135.186 146.74 135.844C146.964 136.615 147.449 137.285 148.113 137.738C148.776 138.19 149.577 138.399 150.377 138.326Z" fill="#03A79D"/>
<path d="M43.0651 157.639C43.0232 157.593 43 157.534 43 157.472C43 157.41 43.0232 157.35 43.0651 157.304L44.4552 155.703C44.4738 155.68 44.4974 155.661 44.5243 155.648C44.5511 155.635 44.5805 155.628 44.6103 155.628C44.6401 155.628 44.6696 155.635 44.6964 155.648C44.7233 155.661 44.7469 155.68 44.7655 155.703C45.9236 156.688 47.3791 157.257 48.8986 157.316C50.7107 157.316 51.7657 156.398 51.7657 155.119C51.7657 154.027 51.0955 153.307 48.9855 153.022L48.1787 152.91C45.262 152.501 43.5988 151.098 43.5988 148.566C43.5988 145.823 45.6095 143.986 48.7497 143.986C50.5244 143.957 52.2626 144.492 53.7144 145.513C53.8261 145.6 53.8385 145.687 53.7144 145.823L52.5849 147.461C52.5696 147.487 52.5494 147.509 52.5255 147.527C52.5015 147.544 52.4743 147.557 52.4454 147.564C52.4165 147.571 52.3865 147.572 52.3572 147.567C52.3279 147.562 52.2998 147.552 52.2746 147.536C51.2142 146.758 49.9404 146.325 48.6256 146.295C47.0865 146.295 46.2425 147.151 46.2425 148.33C46.2425 149.509 46.9748 150.093 49.0351 150.391L49.8295 150.502C52.7587 150.899 54.3722 152.29 54.3722 154.896C54.3722 157.503 52.4236 159.613 48.6504 159.613C46.613 159.641 44.6323 158.941 43.0651 157.639V157.639Z" fill="#03A79D"/>
<path d="M60.9129 159.414C60.8831 159.416 60.8533 159.411 60.8253 159.401C60.7974 159.39 60.772 159.374 60.7509 159.353C60.7298 159.331 60.7134 159.306 60.7028 159.278C60.6922 159.25 60.6877 159.22 60.6895 159.191V146.717C60.6915 146.698 60.6893 146.68 60.6831 146.662C60.6769 146.645 60.6669 146.629 60.6539 146.616C60.6408 146.603 60.6249 146.593 60.6075 146.587C60.59 146.58 60.5714 146.578 60.553 146.58H56.5812C56.5514 146.582 56.5216 146.577 56.4936 146.567C56.4657 146.556 56.4403 146.54 56.4192 146.519C56.3981 146.498 56.3817 146.472 56.3711 146.444C56.3605 146.416 56.356 146.387 56.3578 146.357V144.433C56.356 144.403 56.3605 144.373 56.3711 144.345C56.3817 144.317 56.3981 144.292 56.4192 144.271C56.4403 144.25 56.4657 144.233 56.4936 144.223C56.5216 144.212 56.5514 144.208 56.5812 144.21H67.4415C67.4713 144.208 67.5012 144.212 67.5291 144.223C67.557 144.233 67.5824 144.25 67.6035 144.271C67.6246 144.292 67.641 144.317 67.6516 144.345C67.6622 144.373 67.6667 144.403 67.6649 144.433V146.357C67.6667 146.387 67.6622 146.416 67.6516 146.444C67.641 146.472 67.6246 146.498 67.6035 146.519C67.5824 146.54 67.557 146.556 67.5291 146.567C67.5012 146.577 67.4713 146.582 67.4415 146.58H63.4573C63.4389 146.578 63.4203 146.58 63.4029 146.587C63.3854 146.593 63.3696 146.603 63.3565 146.616C63.3434 146.629 63.3334 146.645 63.3272 146.662C63.321 146.68 63.3189 146.698 63.3208 146.717V159.191C63.3226 159.22 63.3181 159.25 63.3075 159.278C63.2969 159.306 63.2805 159.331 63.2594 159.353C63.2383 159.374 63.2129 159.39 63.185 159.401C63.1571 159.411 63.1272 159.416 63.0974 159.414H60.9129Z" fill="#03A79D"/>
<path d="M72.977 144.433C72.9913 144.368 73.0276 144.311 73.0797 144.27C73.1317 144.229 73.1963 144.208 73.2624 144.21H75.3228C75.3895 144.205 75.4553 144.226 75.5079 144.267C75.5605 144.308 75.5962 144.367 75.6082 144.433L80.7591 159.191C80.7591 159.315 80.7591 159.414 80.5978 159.414H78.4133C78.3451 159.419 78.2776 159.399 78.2229 159.358C78.1683 159.317 78.1301 159.257 78.1154 159.191L77.1101 156.237H71.3882L70.3829 159.191C70.3709 159.256 70.3352 159.315 70.2826 159.356C70.23 159.398 70.1641 159.418 70.0974 159.414H67.9254C67.7764 159.414 67.7268 159.315 67.7764 159.191L72.977 144.433ZM76.3033 153.891L74.3174 147.983L72.2819 153.891H76.3033Z" fill="#03A79D"/>
<path d="M92.0172 159.414C91.9439 159.423 91.8699 159.405 91.8085 159.364C91.747 159.323 91.7022 159.262 91.6821 159.191L88.7777 153.258H86.1588C86.1404 153.256 86.1218 153.258 86.1044 153.264C86.0869 153.27 86.0711 153.28 86.058 153.293C86.0449 153.306 86.0349 153.322 86.0287 153.34C86.0225 153.357 86.0204 153.376 86.0223 153.394V159.191C86.0241 159.22 86.0196 159.25 86.009 159.278C85.9984 159.306 85.982 159.331 85.9609 159.353C85.9398 159.374 85.9144 159.39 85.8865 159.401C85.8586 159.411 85.8287 159.416 85.7989 159.414H83.6144C83.5846 159.416 83.5548 159.411 83.5268 159.401C83.4989 159.39 83.4736 159.374 83.4524 159.353C83.4313 159.331 83.4149 159.306 83.4043 159.278C83.3937 159.25 83.3892 159.22 83.391 159.191V144.433C83.3892 144.403 83.3937 144.373 83.4043 144.345C83.4149 144.317 83.4313 144.292 83.4524 144.271C83.4736 144.25 83.4989 144.233 83.5268 144.223C83.5548 144.212 83.5846 144.208 83.6144 144.21H89.4852C90.1036 144.165 90.7244 144.249 91.3094 144.454C91.8943 144.66 92.4308 144.983 92.8857 145.404C93.3406 145.825 93.7043 146.335 93.9541 146.903C94.2039 147.47 94.3347 148.083 94.3382 148.703C94.3588 149.612 94.0914 150.506 93.5743 151.255C93.0572 152.003 92.3168 152.57 91.4587 152.873L94.6485 159.079C94.6692 159.107 94.6819 159.139 94.685 159.174C94.6881 159.208 94.6815 159.243 94.6661 159.274C94.6506 159.305 94.6268 159.331 94.5974 159.349C94.568 159.367 94.5341 159.377 94.4995 159.377L92.0172 159.414ZM91.6945 148.703C91.7049 148.402 91.6507 148.102 91.5357 147.824C91.4206 147.545 91.2474 147.295 91.0275 147.089C90.8076 146.884 90.5463 146.727 90.261 146.631C89.9757 146.534 89.6731 146.5 89.3735 146.531H86.1588C86.1404 146.529 86.1218 146.531 86.1044 146.537C86.0869 146.543 86.0711 146.553 86.058 146.566C86.0449 146.579 86.0349 146.595 86.0287 146.613C86.0225 146.63 86.0204 146.649 86.0223 146.667V150.713C86.0223 150.8 86.0223 150.837 86.1588 150.837H89.3983C89.6927 150.864 89.9894 150.828 90.269 150.732C90.5486 150.636 90.805 150.482 91.0215 150.281C91.2379 150.08 91.4097 149.835 91.5257 149.563C91.6416 149.291 91.6991 148.998 91.6945 148.703V148.703Z" fill="#03A79D"/>
<path d="M97.7758 144.433C97.774 144.403 97.7785 144.373 97.7891 144.345C97.7997 144.317 97.8161 144.292 97.8372 144.271C97.8583 144.25 97.8837 144.233 97.9116 144.223C97.9395 144.212 97.9694 144.208 97.9992 144.21H100.184C100.213 144.208 100.243 144.212 100.271 144.223C100.299 144.233 100.325 144.25 100.346 144.271C100.367 144.292 100.383 144.317 100.394 144.345C100.404 144.373 100.409 144.403 100.407 144.433V156.845C100.405 156.863 100.407 156.882 100.413 156.899C100.42 156.917 100.43 156.932 100.443 156.946C100.456 156.959 100.472 156.969 100.489 156.975C100.507 156.981 100.525 156.983 100.544 156.981H107.519C107.549 156.979 107.579 156.984 107.607 156.995C107.635 157.005 107.66 157.022 107.681 157.043C107.702 157.064 107.719 157.089 107.729 157.117C107.74 157.145 107.744 157.175 107.742 157.205V159.128C107.744 159.158 107.74 159.188 107.729 159.216C107.719 159.244 107.702 159.269 107.681 159.29C107.66 159.312 107.635 159.328 107.607 159.339C107.579 159.349 107.549 159.354 107.519 159.352H97.9992C97.9694 159.354 97.9395 159.349 97.9116 159.339C97.8837 159.328 97.8583 159.312 97.8372 159.29C97.8161 159.269 97.7997 159.244 97.7891 159.216C97.7785 159.188 97.774 159.158 97.7758 159.128V144.433Z" fill="#03A79D"/>
<path d="M110.51 144.433C110.508 144.403 110.513 144.373 110.523 144.345C110.534 144.317 110.55 144.292 110.572 144.271C110.593 144.25 110.618 144.233 110.646 144.223C110.674 144.212 110.704 144.208 110.734 144.21H112.918C112.948 144.208 112.978 144.212 113.006 144.223C113.034 144.233 113.059 144.25 113.08 144.271C113.101 144.292 113.118 144.317 113.128 144.345C113.139 144.373 113.143 144.403 113.141 144.433V159.191C113.143 159.22 113.139 159.25 113.128 159.278C113.118 159.306 113.101 159.331 113.08 159.353C113.059 159.374 113.034 159.39 113.006 159.401C112.978 159.411 112.948 159.416 112.918 159.414H110.734C110.704 159.416 110.674 159.411 110.646 159.401C110.618 159.39 110.593 159.374 110.572 159.353C110.55 159.331 110.534 159.306 110.523 159.278C110.513 159.25 110.508 159.22 110.51 159.191V144.433Z" fill="#03A79D"/>
<path d="M117.051 144.433C117.049 144.403 117.054 144.373 117.064 144.345C117.075 144.317 117.091 144.292 117.113 144.271C117.134 144.25 117.159 144.233 117.187 144.223C117.215 144.212 117.245 144.208 117.275 144.21H119.335C119.414 144.207 119.491 144.227 119.559 144.266C119.627 144.306 119.683 144.364 119.72 144.433L125.926 154.921H126.012V144.433C126.011 144.403 126.015 144.373 126.026 144.345C126.036 144.317 126.053 144.292 126.074 144.271C126.095 144.25 126.12 144.233 126.148 144.223C126.176 144.212 126.206 144.208 126.236 144.21H128.184C128.214 144.208 128.244 144.212 128.272 144.223C128.3 144.233 128.325 144.25 128.346 144.271C128.368 144.292 128.384 144.317 128.395 144.345C128.405 144.373 128.41 144.403 128.408 144.433V159.191C128.41 159.22 128.405 159.25 128.395 159.278C128.384 159.306 128.368 159.331 128.346 159.353C128.325 159.374 128.3 159.39 128.272 159.401C128.244 159.411 128.214 159.416 128.184 159.414H126.149C126.072 159.417 125.996 159.397 125.93 159.358C125.863 159.318 125.81 159.26 125.777 159.191L119.571 148.727H119.484V159.191C119.486 159.22 119.481 159.25 119.471 159.278C119.46 159.306 119.444 159.331 119.422 159.353C119.401 159.374 119.376 159.39 119.348 159.401C119.32 159.411 119.29 159.416 119.26 159.414H117.275C117.215 159.414 117.159 159.39 117.117 159.348C117.075 159.307 117.051 159.25 117.051 159.191V144.433Z" fill="#03A79D"/>
<path d="M131.848 151.806C131.743 150.403 131.877 148.993 132.245 147.635C132.59 146.487 133.317 145.492 134.306 144.814C135.295 144.137 136.486 143.818 137.681 143.912C138.79 143.834 139.896 144.102 140.845 144.681C141.795 145.259 142.541 146.118 142.981 147.139C143.002 147.194 143.004 147.255 142.986 147.311C142.968 147.368 142.931 147.416 142.882 147.449L141.007 148.268C140.981 148.28 140.953 148.287 140.925 148.288C140.896 148.289 140.867 148.284 140.841 148.274C140.814 148.263 140.79 148.248 140.769 148.227C140.749 148.207 140.733 148.183 140.722 148.156C140.443 147.58 140 147.098 139.447 146.774C138.895 146.449 138.259 146.295 137.619 146.332C136.987 146.284 136.359 146.456 135.839 146.818C135.319 147.179 134.939 147.709 134.764 148.318C134.5 149.46 134.408 150.636 134.491 151.806C134.408 152.975 134.5 154.151 134.764 155.293C134.939 155.903 135.318 156.434 135.838 156.798C136.357 157.162 136.986 157.336 137.619 157.292C138.242 157.329 138.859 157.163 139.379 156.818C139.899 156.474 140.292 155.969 140.499 155.38C140.688 154.744 140.772 154.082 140.747 153.419C140.749 153.401 140.747 153.382 140.74 153.365C140.734 153.347 140.724 153.331 140.711 153.318C140.698 153.305 140.682 153.295 140.665 153.289C140.647 153.283 140.629 153.281 140.61 153.283H138.128C138.098 153.284 138.068 153.28 138.04 153.269C138.012 153.259 137.987 153.242 137.966 153.221C137.945 153.2 137.928 153.175 137.918 153.147C137.907 153.119 137.903 153.089 137.904 153.059V151.272C137.903 151.242 137.907 151.212 137.918 151.184C137.928 151.156 137.945 151.131 137.966 151.11C137.987 151.089 138.012 151.072 138.04 151.062C138.068 151.051 138.098 151.047 138.128 151.048H143.093C143.122 151.047 143.152 151.051 143.18 151.062C143.208 151.072 143.233 151.089 143.255 151.11C143.276 151.131 143.292 151.156 143.303 151.184C143.313 151.212 143.318 151.242 143.316 151.272V152.587C143.347 153.711 143.226 154.835 142.956 155.926C142.532 157.013 141.789 157.946 140.826 158.604C139.863 159.262 138.723 159.614 137.557 159.614C136.39 159.614 135.251 159.262 134.288 158.604C133.325 157.946 132.582 157.013 132.158 155.926C131.825 154.58 131.72 153.187 131.848 151.806V151.806Z" fill="#03A79D"/>
<path d="M146.058 157.639C146.036 157.617 146.018 157.591 146.006 157.562C145.994 157.534 145.988 157.503 145.988 157.472C145.988 157.44 145.994 157.41 146.006 157.381C146.018 157.352 146.036 157.326 146.058 157.304L147.448 155.703C147.467 155.68 147.49 155.661 147.517 155.648C147.544 155.635 147.574 155.628 147.603 155.628C147.633 155.628 147.663 155.635 147.69 155.648C147.716 155.661 147.74 155.68 147.759 155.703C148.917 156.688 150.372 157.257 151.892 157.316C153.704 157.316 154.746 156.398 154.746 155.12C154.746 154.027 154.076 153.307 151.979 153.022L151.172 152.91C148.255 152.501 146.592 151.098 146.592 148.566C146.592 145.823 148.603 143.986 151.73 143.986C153.506 143.953 155.245 144.488 156.695 145.513C156.718 145.531 156.737 145.555 156.75 145.582C156.763 145.609 156.77 145.638 156.77 145.668C156.77 145.698 156.763 145.727 156.75 145.754C156.737 145.781 156.718 145.804 156.695 145.823L155.578 147.461C155.543 147.511 155.49 147.547 155.431 147.56C155.371 147.574 155.309 147.565 155.255 147.536C154.199 146.758 152.93 146.325 151.619 146.295C150.08 146.295 149.223 147.151 149.223 148.33C149.223 149.509 149.968 150.093 152.016 150.391L152.823 150.502C155.752 150.9 157.365 152.29 157.365 154.896C157.365 157.503 155.417 159.613 151.643 159.613C149.606 159.641 147.625 158.941 146.058 157.639V157.639Z" fill="#03A79D"/>
<path d="M18.3026 13.0988C21.4023 10.1373 24.85 7.56025 28.5705 5.42373C34.5516 1.94435 46.7961 1.58618 46.7961 1.58618L32.8317 9.72178L25.6698 19.8273C26.6613 22.9687 28.3254 25.858 30.5471 28.2955C33.3216 30.3211 36.683 31.3899 40.1219 31.3399C38.3302 32.3753 36.6819 33.6396 35.219 35.1007C34.5064 36.0123 33.9273 37.0201 33.4991 38.094L28.8015 30.7004L18.9957 25.7883L7.70095 33.2587L0 45.0784C0.547783 40.2507 1.56217 35.4871 3.02904 30.8539C5.49673 25.8138 8.99415 21.3434 13.297 17.7295L11.4231 12.7918L6.82817 9.54269C9.34759 9.37944 11.8771 9.61255 14.3238 10.2334C15.771 11.0095 17.1089 11.973 18.3026 13.0988Z" fill="#03A79D"/>
<path d="M62.1229 10.6428C64.7368 8.08672 67.6499 5.85342 70.7993 3.99111C76.0102 1.12574 86.4322 0.793152 86.4322 0.793152L74.4444 7.67515L68.412 16.3736C69.2585 19.0574 70.677 21.5272 72.5705 23.6137C74.9429 25.3227 77.8067 26.2202 80.7335 26.1721C79.2004 27.0552 77.7931 28.1394 76.5493 29.3957C75.9474 30.1784 75.4552 31.039 75.0861 31.954L71.0816 25.5837L62.7389 21.4647L53.1641 27.8606L46.5156 37.915C46.9754 33.7995 47.8351 29.7382 49.0826 25.7884C51.1914 21.49 54.172 17.6743 57.836 14.5827L56.2445 10.3614L52.317 7.67515C54.4672 7.4967 56.6321 7.65205 58.7345 8.13565C59.9651 8.82624 61.1035 9.6686 62.1229 10.6428V10.6428Z" fill="#03A79D"/>
<path d="M15.9903 54.2885C18.5947 51.7287 21.5093 49.5028 24.6667 47.6623C29.8007 44.7714 40.274 44.4644 40.274 44.4644L28.3889 51.4231L22.2794 60.0448C23.1225 62.7225 24.5417 65.1846 26.438 67.2594C28.8035 68.9818 31.672 69.8808 34.601 69.8177C33.0741 70.7101 31.668 71.7934 30.4168 73.0413C29.8096 73.8205 29.3169 74.6819 28.9536 75.5996L24.9234 69.3572L16.5807 65.1104L7.03157 71.6342L0.357422 81.5862C0.8326 77.4648 1.69197 73.3965 2.9244 69.434C5.04195 65.1411 8.02126 61.3271 11.6778 58.2284L10.112 54.0326L6.18447 51.1673C8.32613 50.989 10.4826 51.1444 12.5763 51.6278C13.8268 52.361 14.9748 53.2557 15.9903 54.2885V54.2885Z" fill="#03A79D"/>
<path d="M14.0966 88.7752C16.2739 86.6452 18.705 84.7893 21.3355 83.2491C25.6737 80.8442 34.3501 80.6907 34.3501 80.6907L24.4416 86.3959L19.3076 93.5849C20.0174 95.8132 21.1992 97.8635 22.773 99.597C24.7524 101.038 27.1507 101.792 29.6012 101.746C28.3309 102.444 27.1573 103.304 26.1101 104.304C25.5969 104.957 25.1818 105.681 24.878 106.453L21.5409 101.337L14.61 97.8062L6.62671 103.153L1.08203 111.519C1.45863 108.045 2.18094 104.617 3.2383 101.286C5.00803 97.7565 7.48993 94.6297 10.5285 92.101L9.19369 88.5705L5.93363 86.268C7.72393 86.1319 9.52458 86.27 11.2729 86.6773C12.3002 87.2536 13.2491 87.9586 14.0966 88.7752V88.7752Z" fill="#03A79D"/>
<path d="M12.5802 117.889C14.441 116.066 16.5186 114.477 18.7666 113.156C22.3222 111.738 26.1042 110.967 29.933 110.879L21.4362 115.843L17.0724 122.008C17.6703 123.914 18.6876 125.662 20.0501 127.125C21.7295 128.355 23.7675 129.002 25.8515 128.967C24.7652 129.606 23.7646 130.38 22.8738 131.27C22.4488 131.811 22.0952 132.404 21.8213 133.035L18.9719 128.66L13.0165 125.616L6.18837 130.195L1.43945 137.358C1.77449 134.426 2.38468 131.531 3.26201 128.711C4.7769 125.642 6.90887 122.917 9.52545 120.704L8.39597 117.685L5.59796 115.715C7.16448 115.589 8.74103 115.71 10.2699 116.073C11.1147 116.577 11.8911 117.188 12.5802 117.889V117.889Z" fill="#03A79D"/>
<path d="M44.7166 109.498C46.3064 107.94 48.0824 106.582 50.0046 105.456C53.029 104.249 56.2455 103.59 59.5024 103.511L52.2635 107.758L48.5414 113.003C49.0655 114.638 49.9415 116.14 51.1084 117.403C52.5417 118.454 54.2837 119.003 56.0626 118.964C55.1269 119.51 54.2644 120.172 53.4957 120.934C53.1304 121.414 52.8284 121.938 52.5972 122.494L50.1586 118.682L45.0246 116.124L39.2746 119.987L35.2188 126.102C35.4985 123.592 36.0229 121.116 36.7846 118.708C38.0613 116.096 39.8712 113.778 42.0983 111.903L41.1485 109.344L38.7612 107.656C40.06 107.546 41.3682 107.641 42.6373 107.937C43.3988 108.36 44.0984 108.885 44.7166 109.498Z" fill="#03A79D"/>
<path d="M84.0162 72.2993C85.6049 70.7397 87.381 69.382 89.3042 68.2571C92.3332 67.0358 95.5608 66.3768 98.8277 66.3127L91.5632 70.534L87.841 75.8043C88.3737 77.4284 89.249 78.9201 90.408 80.1791C91.8512 81.2325 93.5992 81.7893 95.388 81.7653C94.4513 82.3098 93.5886 82.9719 92.821 83.7352C92.4617 84.2051 92.1681 84.7215 91.9482 85.2702L89.3812 81.4583L84.2473 78.8999L78.4202 82.7886L74.4414 88.9031C74.7211 86.3937 75.2456 83.9174 76.0073 81.5094C77.284 78.8972 79.0938 76.5793 81.3209 74.7042L80.3711 72.1458L77.9838 70.4573C79.2925 70.3626 80.6081 70.4661 81.8856 70.7643C82.6611 71.1794 83.3776 71.6956 84.0162 72.2993V72.2993Z" fill="#03A79D"/>
<path d="M51.3408 79.1558C53.2074 77.3285 55.294 75.7387 57.5529 74.4228C61.0992 73.0034 64.873 72.2321 68.6936 72.1458L60.1968 77.1091L55.833 83.2491C56.4484 85.1467 57.4636 86.8912 58.8107 88.3659C60.4989 89.5979 62.5456 90.2449 64.6377 90.2079C63.5418 90.8441 62.5324 91.6179 61.6344 92.5104C61.2066 93.0682 60.8529 93.6788 60.5819 94.3268L57.7325 89.8497L51.8798 86.9843L45.0516 91.5638L40.3027 98.7272C40.6346 95.7917 41.2537 92.8955 42.151 90.08C43.6183 86.9302 45.7452 84.13 48.3887 81.8676L47.2593 78.8743L44.4612 76.9044C45.9923 76.767 47.5357 76.8794 49.0305 77.237C49.8813 77.7733 50.658 78.4184 51.3408 79.1558Z" fill="#03A79D"/>
<path d="M97.8304 40.2942C99.6913 38.4712 101.769 36.8817 104.017 35.5613C107.562 34.1331 111.335 33.3532 115.158 33.2587L106.661 38.3755L102.297 44.5411C102.907 46.4413 103.922 48.187 105.275 49.6578C106.957 50.9021 109.008 51.5504 111.102 51.4998C110.006 52.1349 109.004 52.9184 108.124 53.828C107.691 54.3826 107.337 54.9938 107.072 55.6444L104.197 51.1673L98.2412 48.1228L91.4386 52.7023L86.6641 59.8913C86.9944 56.9304 87.6134 54.0086 88.5123 51.1673C90.0093 48.1015 92.1342 45.3824 94.7501 43.1852L93.6206 40.1663L90.8226 38.1964C92.3538 38.0733 93.8948 38.1854 95.3918 38.529C96.2757 39.0132 97.095 39.6063 97.8304 40.2942V40.2942Z" fill="#03A79D"/>
<path d="M142.645 7.00991C144.521 5.18349 146.616 3.59392 148.882 2.27694C152.422 0.864829 156.186 0.0937545 159.997 0L151.449 4.96322L147.085 11.1033C147.701 13.0008 148.716 14.7454 150.063 16.22C151.751 17.4521 153.798 18.0991 155.89 18.062C154.794 18.6982 153.785 19.4721 152.887 20.3646C152.463 20.9207 152.118 21.5318 151.86 22.181L149.036 17.755L143.081 14.7362L136.253 19.3156L131.504 26.4791C131.883 23.5651 132.545 20.6948 133.48 17.9085C134.973 14.8324 137.098 12.104 139.718 9.90086L138.589 6.90758L135.662 4.86089C137.189 4.6984 138.733 4.78481 140.232 5.11673C141.117 5.63769 141.929 6.27441 142.645 7.00991V7.00991Z" fill="#03A79D"/>
<path d="M107.118 8.31465C109.295 6.18469 111.726 4.32882 114.357 2.78859C118.67 0.383726 127.372 0.230225 127.372 0.230225L117.463 5.93537L112.329 13.0988C113.038 15.3407 114.229 17.4013 115.82 19.1365C117.78 20.5766 120.162 21.332 122.597 21.2856C121.331 21.9901 120.158 22.8495 119.106 23.8439C118.609 24.4942 118.204 25.2085 117.899 25.9674L114.562 20.8506L107.606 17.3457L99.6482 22.6671L94.1035 31.0585C94.481 27.5869 95.1946 24.1598 96.2341 20.825C97.9998 17.2424 100.491 14.063 103.55 11.487L102.215 7.95648L98.9551 5.65395C100.745 5.51791 102.546 5.65596 104.294 6.06329C105.331 6.68716 106.28 7.4441 107.118 8.31465V8.31465Z" fill="#03A79D"/>
<path d="M59.5051 44.2085C61.6806 42.0691 64.1118 40.2046 66.744 38.6568C71.0822 36.2775 79.7843 36.0984 79.7843 36.0984L69.8244 41.8036L64.6904 48.9926C65.3826 51.2285 66.5665 53.2825 68.1558 55.0048C70.1264 56.4434 72.516 57.1983 74.9583 57.1538C73.6756 57.8943 72.5009 58.8067 71.4672 59.8656C70.9623 60.5148 70.5479 61.2291 70.2351 61.9891L66.898 56.7444L59.9928 53.2139L52.0352 58.5609L46.4648 66.9523C46.8582 63.481 47.5802 60.0546 48.6211 56.7189C50.3729 53.1346 52.8559 49.9541 55.9113 47.3808L54.6022 43.8759L51.3421 41.6757C53.1311 41.5247 54.9327 41.6541 56.6814 42.0594C57.71 42.654 58.6588 43.3761 59.5051 44.2085Z" fill="#03A79D"/>
<path d="M11.3204 143.396C12.9044 141.842 14.6714 140.485 16.5827 139.354C19.6164 138.148 22.8411 137.49 26.1062 137.41L18.8673 141.657L15.1452 146.901C15.6745 148.534 16.5499 150.035 17.7122 151.302C19.1551 152.353 20.9052 152.901 22.6921 152.862C21.7515 153.401 20.888 154.063 20.1251 154.832C19.7491 155.305 19.4463 155.831 19.2267 156.393L16.6597 152.581L11.5257 150.022L5.85271 153.886L1.79688 160C2.08897 157.493 2.61316 155.018 3.36273 152.606C4.65693 150.005 6.4744 147.698 8.70205 145.827L7.70093 143.268L5.31364 141.58C6.62101 141.47 7.9376 141.565 9.21545 141.861C9.98441 142.274 10.6927 142.791 11.3204 143.396V143.396Z" fill="#03A79D"/>
</svg>
