<?xml version="1.0" standalone="no"?>
<!DOCTYPE svg PUBLIC "-//W3C//DTD SVG 20010904//EN"
 "http://www.w3.org/TR/2001/REC-SVG-20010904/DTD/svg10.dtd">
<svg version="1.0" xmlns="http://www.w3.org/2000/svg"
 width="700.000000pt" height="700.000000pt" viewBox="0 0 700.000000 700.000000"
 preserveAspectRatio="xMidYMid meet">
<metadata>
Created by potrace 1.14, written by Peter Selinger 2001-2017
</metadata>
<g transform="translate(0.000000,700.000000) scale(0.100000,-0.100000)"
fill="#000000" stroke="none">
<path d="M6875 6992 c-64 -6 -194 -36 -278 -63 -101 -33 -228 -114 -318 -201
-15 -16 -30 -28 -34 -28 -3 0 -30 18 -60 41 -53 40 -56 41 -152 46 l-98 4 25
-20 c14 -12 43 -33 65 -47 34 -22 45 -38 64 -92 l22 -65 -48 -46 c-91 -88
-174 -201 -217 -294 -21 -45 -72 -244 -82 -314 -3 -27 -8 -51 -11 -55 -2 -5
-2 -8 1 -8 3 0 51 68 106 151 l99 152 147 98 c80 55 150 99 156 99 19 0 267
-132 271 -145 3 -7 29 -49 58 -93 l53 -81 27 47 c16 28 50 63 83 87 l56 40
-64 12 c-96 17 -169 57 -215 117 -40 51 -91 149 -91 174 0 7 42 73 94 145 l94
132 169 97 c92 54 175 102 183 108 15 10 -16 11 -105 2z"/>
<path d="M5325 6967 c-178 -25 -283 -62 -403 -142 -54 -36 -128 -92 -165 -125
l-68 -60 -64 49 c-66 51 -82 56 -217 65 -73 5 -74 -7 -3 -55 61 -42 66 -48 95
-122 l29 -77 -73 -73 c-78 -77 -162 -187 -214 -278 -31 -54 -84 -234 -97 -329
-4 -24 -8 -47 -10 -50 -1 -3 -6 -32 -9 -65 l-7 -60 121 183 121 183 174 115
174 115 151 -76 151 -76 66 -102 c36 -56 69 -106 73 -110 4 -5 19 11 33 36 26
44 83 96 147 136 l35 21 -35 1 c-19 0 -42 2 -50 4 -118 24 -203 71 -254 139
-42 55 -106 181 -106 206 0 9 33 61 73 115 39 55 88 123 107 152 31 46 53 62
210 152 96 55 193 112 215 126 l40 25 -55 -2 c-30 -1 -113 -10 -185 -21z"/>
<path d="M3737 6964 c-1 -1 -38 -5 -82 -8 -205 -17 -394 -58 -512 -111 -91
-42 -229 -136 -338 -231 -46 -41 -86 -74 -89 -74 -2 0 -11 6 -18 13 -41 42
-137 95 -183 102 -64 10 -215 14 -215 6 1 -3 36 -30 80 -60 l79 -53 35 -91 36
-91 -90 -91 c-126 -126 -185 -206 -272 -365 -36 -66 -107 -349 -123 -490 -4
-30 -9 -58 -12 -64 -3 -5 -2 -6 4 -3 5 3 73 102 151 219 l142 213 209 138 209
139 183 -94 183 -93 79 -125 c43 -69 82 -129 86 -133 5 -5 17 8 27 29 21 46
101 127 169 172 27 18 47 32 44 33 -2 0 -11 2 -19 3 -8 2 -39 6 -67 10 -63 7
-165 44 -222 80 -23 15 -62 55 -88 89 -42 57 -118 201 -125 238 -2 8 56 101
129 205 l131 189 99 57 c54 30 118 67 143 81 83 46 272 156 276 159 3 4 -35 5
-39 2z"/>
<path d="M1937 6924 c-1 -1 -36 -4 -77 -8 -202 -18 -435 -70 -550 -123 -115
-53 -311 -189 -442 -304 l-66 -60 -69 52 c-81 62 -108 74 -194 89 -79 13 -218
20 -224 10 -2 -3 5 -13 17 -21 11 -8 54 -39 95 -69 l75 -55 39 -103 39 -104
-104 -103 c-148 -148 -308 -375 -350 -498 -38 -112 -97 -367 -111 -484 -4 -26
-9 -61 -11 -78 -3 -19 -2 -26 4 -20 9 9 207 310 292 444 32 49 58 70 283 218
l248 164 214 -107 215 -107 101 -158 c55 -88 102 -159 104 -159 2 0 14 21 26
46 34 67 105 137 210 208 l54 36 -45 0 c-96 1 -215 38 -315 96 -54 32 -151
136 -164 177 -2 6 -7 14 -11 17 -7 5 -59 113 -83 172 -15 36 -15 37 22 90 21
29 92 130 158 223 l121 170 248 145 c137 79 274 159 304 177 l55 33 -53 -2
c-30 -2 -54 -4 -55 -4z"/>
<path d="M4977 5544 c-1 -1 -27 -4 -57 -7 -174 -19 -339 -72 -445 -143 -79
-53 -98 -67 -162 -127 l-32 -30 -38 30 c-61 48 -79 54 -176 60 -100 6 -100 7
-21 -50 41 -29 55 -48 73 -93 11 -31 21 -60 21 -65 0 -5 -25 -34 -56 -65 -168
-169 -233 -302 -274 -554 -7 -41 -14 -84 -16 -94 -5 -29 6 -15 109 142 l93
143 148 99 c81 55 151 100 156 100 20 0 247 -124 265 -145 11 -12 42 -57 68
-99 l49 -78 28 45 c16 25 54 64 84 86 31 23 56 43 56 45 0 2 -13 3 -29 4 -81
2 -194 53 -240 109 -33 40 -101 166 -101 188 0 7 42 72 94 145 l93 132 173
103 c94 57 176 107 180 111 7 7 -35 14 -43 8z"/>
<path d="M3325 5409 c-27 -3 -75 -9 -105 -13 -74 -9 -196 -41 -256 -67 -80
-36 -207 -122 -296 -204 -26 -24 -52 -46 -58 -50 -5 -3 -29 9 -51 29 -64 54
-98 66 -211 72 l-103 6 25 -19 c14 -11 46 -34 72 -51 39 -27 50 -42 72 -100
14 -37 26 -71 26 -76 0 -5 -37 -48 -83 -95 -151 -157 -242 -316 -271 -471 -2
-14 -12 -58 -20 -98 -9 -41 -19 -97 -22 -125 -4 -29 -8 -55 -11 -59 -2 -5 -2
-8 1 -8 3 0 57 79 121 174 63 96 130 186 147 199 18 13 98 68 178 122 l145 97
151 -77 150 -78 73 -114 73 -113 32 52 c20 35 54 70 98 103 l67 50 -74 12
c-156 27 -245 95 -321 248 l-46 92 19 29 c10 17 61 90 113 163 l94 132 111 63
c159 91 309 178 314 182 6 6 -90 1 -154 -7z"/>
<path d="M1729 5056 c-2 -2 -42 -6 -89 -10 -47 -3 -96 -8 -110 -10 -14 -3 -56
-10 -95 -16 -265 -41 -411 -112 -648 -316 l-87 -75 -58 47 c-31 26 -71 53 -87
60 -57 24 -267 38 -263 18 1 -5 35 -34 76 -64 73 -54 75 -56 108 -145 l34 -90
-81 -79 c-96 -96 -203 -234 -259 -336 -35 -64 -80 -188 -94 -264 -2 -11 -9
-41 -15 -66 -5 -25 -12 -58 -15 -75 -16 -96 -26 -162 -26 -180 0 -11 65 77
144 195 l143 215 139 95 c76 53 171 117 210 144 l71 48 182 -94 181 -93 87
-134 c74 -114 89 -131 98 -116 53 92 96 135 215 217 l25 17 -25 -3 c-33 -4
-145 18 -200 40 -77 30 -145 79 -185 134 -46 62 -125 216 -125 242 0 10 59
101 130 202 l131 184 217 128 c119 70 229 134 243 141 30 15 57 43 42 43 -5 0
-12 -2 -14 -4z"/>
<path d="M4170 4084 c-152 -24 -239 -55 -330 -116 -47 -32 -102 -73 -123 -93
-31 -28 -43 -33 -57 -25 -11 6 -21 14 -25 19 -13 23 -76 43 -145 47 l-75 5 30
-23 c60 -47 75 -64 94 -115 l20 -51 -39 -36 c-96 -86 -186 -222 -213 -321 -17
-66 -47 -217 -47 -244 0 -9 38 43 85 115 l85 131 128 85 128 85 114 -57 115
-58 54 -82 54 -83 19 37 c10 20 41 54 68 75 54 43 54 46 0 50 -19 1 -62 16
-95 31 -66 32 -106 77 -149 170 l-24 52 81 114 c86 122 88 124 272 229 55 31
104 61 110 66 12 12 -30 10 -135 -7z"/>
<path d="M2979 3846 c-2 -2 -36 -6 -76 -10 -245 -20 -421 -92 -592 -241 l-64
-56 -26 24 c-33 31 -79 60 -100 64 -28 6 -171 12 -171 8 0 -3 26 -22 58 -44
51 -34 61 -47 84 -104 l25 -65 -54 -54 c-161 -157 -237 -314 -283 -578 -6 -36
-13 -73 -15 -83 -6 -31 11 -10 109 140 l98 148 150 99 149 100 128 -63 128
-64 60 -95 60 -94 31 44 c31 45 112 118 131 118 6 0 11 5 11 11 0 5 -4 8 -8 5
-16 -10 -143 23 -192 50 -58 32 -89 69 -142 172 l-38 74 57 81 c142 204 121
184 315 298 98 57 178 107 178 111 0 9 -4 10 -11 4z"/>
<path d="M1377 3464 c-1 -1 -27 -4 -57 -8 -143 -15 -292 -51 -363 -88 -96 -48
-285 -187 -324 -238 -10 -13 -16 -11 -50 15 -53 43 -84 61 -113 68 -38 9 -200
20 -200 13 0 -3 31 -28 68 -55 56 -41 71 -58 82 -93 7 -24 20 -56 28 -72 13
-28 13 -29 -70 -115 -189 -193 -252 -316 -303 -589 -38 -199 -40 -199 96 4
l120 181 174 117 175 117 150 -76 151 -76 66 -102 c36 -56 69 -106 72 -110 4
-4 21 15 38 42 20 32 55 66 102 99 l70 49 -60 7 c-66 6 -160 41 -213 77 -54
36 -166 219 -166 269 0 7 48 81 108 165 l107 152 213 122 c116 68 212 125 212
127 0 4 -108 2 -113 -2z"/>
<path d="M2430 2454 c-128 -25 -190 -44 -248 -73 -42 -21 -152 -102 -199 -145
l-26 -24 -37 29 c-45 36 -88 49 -165 49 l-60 0 52 -37 c43 -30 57 -47 73 -91
l21 -54 -69 -72 c-127 -134 -192 -271 -218 -461 -3 -27 -8 -58 -10 -67 -1 -10
-2 -18 0 -18 1 0 40 58 87 129 l84 129 127 85 126 86 114 -55 114 -56 48 -79
c27 -43 52 -79 57 -79 4 0 10 9 14 20 6 20 101 110 116 110 5 0 9 5 9 10 0 6
-6 10 -12 8 -25 -4 -94 14 -141 38 -55 27 -74 47 -116 119 -56 96 -58 87 33
215 l82 115 148 87 c82 48 151 90 154 93 10 10 -86 3 -158 -11z"/>
<path d="M1175 2139 c-27 -4 -63 -9 -80 -12 -16 -4 -46 -9 -65 -12 -117 -21
-298 -107 -371 -177 -33 -32 -103 -88 -109 -88 -4 0 -20 12 -36 26 -49 43 -80
54 -174 61 -49 3 -90 4 -90 1 0 -2 25 -22 56 -43 57 -39 71 -59 94 -133 l13
-42 -56 -58 c-90 -91 -124 -135 -185 -239 -28 -48 -76 -208 -88 -298 -4 -22
-9 -59 -14 -82 -4 -24 -4 -40 0 -38 5 3 50 70 101 149 l94 145 152 102 153
102 127 -64 128 -64 60 -92 c33 -51 63 -92 66 -93 3 0 19 20 37 45 17 24 54
61 82 81 28 20 50 38 48 39 -2 2 -28 6 -58 10 -77 9 -172 57 -210 105 -34 43
-100 164 -100 184 0 7 43 73 95 147 72 100 107 140 138 158 160 91 302 174
311 183 10 8 -36 7 -119 -3z"/>
<path d="M5830 1783 c-30 -7 -61 -19 -69 -25 -46 -34 -75 -68 -94 -108 -20
-42 -21 -60 -22 -310 0 -249 1 -268 21 -311 43 -93 122 -143 224 -143 138 1
224 87 239 240 9 90 7 378 -3 455 -18 145 -155 238 -296 202z m130 -73 c61
-31 88 -71 97 -145 10 -75 5 -449 -6 -491 -22 -82 -78 -124 -165 -124 -86 0
-150 54 -165 137 -3 21 -6 144 -6 273 0 229 1 236 23 275 49 82 146 115 222
75z"/>
<path d="M6510 1781 c-41 -11 -67 -27 -100 -60 -67 -68 -74 -98 -76 -356 -3
-288 7 -342 75 -411 47 -48 97 -67 171 -68 112 0 205 71 231 177 14 61 19 410
7 505 -22 165 -154 256 -308 213z m145 -73 c55 -29 78 -64 90 -134 11 -69 12
-403 1 -476 -14 -94 -74 -148 -165 -148 -73 0 -124 29 -153 89 -21 44 -22 59
-22 291 0 173 3 256 12 282 34 95 148 142 237 96z"/>
<path d="M5222 1713 c-88 -64 -92 -68 -92 -105 0 -21 3 -38 6 -38 3 0 41 25
85 55 44 30 81 55 84 55 3 0 5 -175 5 -390 0 -214 3 -390 8 -391 57 -8 62 -6
63 20 1 31 1 806 0 839 -1 18 -7 22 -34 22 -24 0 -56 -17 -125 -67z"/>
<path d="M940 964 c-180 -37 -265 -78 -391 -190 -29 -26 -55 -42 -62 -37 -7 3
-25 16 -42 28 -16 12 -39 25 -50 29 -32 12 -145 18 -145 8 0 -5 20 -23 44 -40
34 -25 50 -45 65 -86 l20 -53 -64 -66 c-80 -81 -159 -201 -179 -270 -25 -91
-61 -277 -53 -277 2 0 41 58 87 128 l84 128 126 86 126 86 113 -59 114 -58 53
-80 52 -81 22 35 c21 35 91 97 120 108 11 4 10 6 -5 7 -57 4 -134 29 -176 57
-40 26 -84 87 -117 162 l-20 43 47 65 c25 36 62 88 81 115 29 42 59 64 180
135 80 46 149 88 154 93 14 14 -71 7 -184 -16z"/>
<path d="M5965 700 c-110 -27 -173 -96 -190 -213 -11 -73 -9 -248 4 -294 37
-136 204 -212 337 -153 106 46 145 111 152 253 l5 98 -119 -3 -119 -3 -2 -30
c-3 -56 3 -62 58 -61 27 1 55 -1 60 -5 12 -7 5 -65 -13 -103 -34 -75 -165 -89
-218 -23 -29 34 -36 82 -35 212 2 131 14 170 61 201 58 38 153 21 195 -35 22
-30 23 -30 57 -15 63 26 65 31 31 79 -54 76 -170 117 -264 95z"/>
<path d="M2042 687 c-48 -18 -102 -65 -118 -103 -8 -18 -14 -57 -14 -86 0
-108 74 -173 221 -192 99 -13 141 -50 131 -112 -13 -82 -166 -98 -273 -27
l-39 25 -34 -38 c-19 -21 -32 -43 -29 -50 6 -16 90 -60 140 -73 62 -17 155
-15 212 4 89 29 149 120 138 210 -13 102 -71 151 -202 170 -131 20 -173 60
-140 138 22 52 127 59 215 13 l46 -23 27 38 c15 20 27 42 27 47 0 6 -26 23
-57 38 -67 31 -195 42 -251 21z"/>
<path d="M6558 690 c-80 -24 -136 -92 -142 -172 -9 -114 59 -188 188 -204 105
-14 166 -48 166 -93 0 -86 -86 -122 -203 -87 -25 7 -60 24 -78 37 l-32 23 -34
-39 c-18 -21 -32 -44 -30 -49 2 -6 26 -23 53 -38 177 -99 392 -48 431 102 33
128 -40 222 -192 246 -27 4 -53 9 -57 10 -5 1 -16 2 -27 3 -10 0 -30 12 -45
26 -36 34 -35 77 4 117 29 29 33 30 92 24 33 -4 78 -16 99 -26 21 -11 42 -20
47 -20 5 0 21 18 35 39 l27 40 -28 19 c-60 43 -200 64 -274 42z"/>
<path d="M2469 683 c-6 -39 -3 -86 7 -90 6 -2 49 -5 95 -6 l84 -2 0 -277 c0
-153 2 -279 5 -279 16 -4 87 -5 98 -1 9 3 12 69 12 283 l0 280 83 -2 c45 0 88
0 95 0 8 1 12 18 12 51 l0 50 -245 0 c-135 0 -246 -3 -246 -7z"/>
<path d="M3186 658 c-8 -18 -46 -125 -86 -238 -39 -113 -86 -247 -104 -298
-26 -70 -30 -92 -20 -93 18 -2 70 -2 88 0 9 0 24 29 37 69 l21 67 126 0 125 0
21 -60 c12 -33 24 -65 28 -71 6 -9 62 -11 110 -5 4 1 -1 21 -12 45 -10 25 -23
59 -28 78 -6 18 -38 112 -72 208 -34 96 -73 210 -88 253 l-26 77 -53 0 c-51 0
-55 -2 -67 -32z m137 -388 c-6 -3 -45 -4 -86 -2 l-75 4 29 81 c16 45 37 102
46 126 l16 44 41 -124 c30 -90 38 -125 29 -129z"/>
<path d="M3652 358 l3 -332 52 -1 c39 0 53 3 55 15 2 8 3 68 3 133 -1 64 1
117 4 118 3 1 30 2 59 3 l54 2 65 -131 c36 -71 67 -132 69 -134 6 -7 114 -5
120 2 3 3 -26 66 -64 140 l-69 135 44 31 c54 38 76 86 76 162 0 71 -37 132
-102 166 -41 21 -56 23 -208 23 l-163 0 2 -332z m329 203 c37 -38 39 -88 5
-128 -23 -27 -27 -28 -123 -28 l-98 0 -1 85 c0 47 1 88 3 93 2 4 45 7 94 7 87
0 92 -1 120 -29z"/>
<path d="M4279 668 c-1 -29 -1 -597 0 -620 1 -17 18 -18 216 -18 136 0 215 4
216 10 1 6 2 27 2 48 l1 37 -159 5 -160 5 -2 260 c0 143 -2 268 -2 278 -1 14
-11 17 -56 17 -50 0 -55 -2 -56 -22z"/>
<path d="M4837 683 c-2 -5 -3 -154 -3 -333 l1 -325 55 0 55 0 3 333 2 332 -54
0 c-30 0 -57 -3 -59 -7z"/>
<path d="M5120 360 c0 -257 3 -330 13 -331 41 -5 74 -5 84 -1 10 3 13 57 12
221 0 119 0 223 0 231 1 8 25 -26 54 -75 30 -50 93 -156 140 -236 l87 -145 42
2 c24 1 48 3 55 3 8 1 11 86 11 331 l0 330 -52 0 -53 0 0 -225 c0 -124 -2
-227 -5 -230 -3 -4 -184 295 -252 417 -20 37 -22 38 -78 38 l-58 0 0 -330z"/>
</g>
</svg>
