<svg width="995" height="1191" viewBox="0 0 995 1191" fill="none" xmlns="http://www.w3.org/2000/svg">
<path d="M114.451 1166.48C108.586 1166.48 103.144 1165.57 98.1271 1163.73C93.1804 1161.82 88.8698 1159.13 85.1951 1155.67C81.5911 1152.21 78.7644 1148.15 76.7151 1143.48C74.6658 1138.75 73.6411 1133.55 73.6411 1127.9C73.6411 1122.25 74.6658 1117.09 76.7151 1112.42C78.7644 1107.69 81.5911 1103.59 85.1951 1100.13C88.8698 1096.67 93.1804 1094.02 98.1271 1092.18C103.144 1090.27 108.586 1089.32 114.451 1089.32C121.306 1089.32 127.418 1090.52 132.789 1092.92C138.23 1095.32 142.753 1098.79 146.357 1103.31L133.001 1115.39C130.598 1112.57 127.948 1110.41 125.051 1108.93C122.224 1107.44 119.044 1106.7 115.511 1106.7C112.472 1106.7 109.681 1107.19 107.137 1108.18C104.593 1109.17 102.402 1110.62 100.565 1112.53C98.7984 1114.37 97.3851 1116.59 96.3251 1119.21C95.3358 1121.82 94.8411 1124.72 94.8411 1127.9C94.8411 1131.08 95.3358 1133.98 96.3251 1136.59C97.3851 1139.21 98.7984 1141.47 100.565 1143.38C102.402 1145.21 104.593 1146.63 107.137 1147.62C109.681 1148.61 112.472 1149.1 115.511 1149.1C119.044 1149.1 122.224 1148.36 125.051 1146.87C127.948 1145.39 130.598 1143.23 133.001 1140.41L146.357 1152.49C142.753 1156.94 138.23 1160.41 132.789 1162.88C127.418 1165.28 121.306 1166.48 114.451 1166.48ZM189.228 1166.48C178.275 1166.48 169.724 1163.48 163.576 1157.47C157.428 1151.47 154.354 1142.95 154.354 1131.93V1090.8H175.342V1131.29C175.342 1137.65 176.579 1142.21 179.052 1144.97C181.596 1147.72 185.059 1149.1 189.44 1149.1C193.822 1149.1 197.249 1147.72 199.722 1144.97C202.196 1142.21 203.432 1137.65 203.432 1131.29V1090.8H224.102V1131.93C224.102 1142.95 221.028 1151.47 214.88 1157.47C208.732 1163.48 200.182 1166.48 189.228 1166.48ZM238.32 1165V1090.8H259.308V1148.36H294.712V1165H238.32ZM311.876 1165V1107.44H289.086V1090.8H355.548V1107.44H332.864V1165H311.876ZM396.467 1166.48C385.513 1166.48 376.963 1163.48 370.815 1157.47C364.667 1151.47 361.593 1142.95 361.593 1131.93V1090.8H382.581V1131.29C382.581 1137.65 383.817 1142.21 386.291 1144.97C388.835 1147.72 392.297 1149.1 396.679 1149.1C401.06 1149.1 404.487 1147.72 406.961 1144.97C409.434 1142.21 410.671 1137.65 410.671 1131.29V1090.8H431.341V1131.93C431.341 1142.95 428.267 1151.47 422.119 1157.47C415.971 1163.48 407.42 1166.48 396.467 1166.48ZM445.559 1165V1090.8H479.479C486.263 1090.8 492.093 1091.9 496.969 1094.09C501.915 1096.28 505.731 1099.46 508.417 1103.63C511.102 1107.72 512.445 1112.6 512.445 1118.25C512.445 1123.84 511.102 1128.68 508.417 1132.78C505.731 1136.8 501.915 1139.91 496.969 1142.1C492.093 1144.22 486.263 1145.28 479.479 1145.28H457.219L466.547 1136.49V1165H445.559ZM491.457 1165L473.013 1137.97H495.379L513.929 1165H491.457ZM466.547 1138.71L457.219 1129.07H478.207C482.588 1129.07 485.839 1128.11 487.959 1126.2C490.149 1124.3 491.245 1121.65 491.245 1118.25C491.245 1114.79 490.149 1112.11 487.959 1110.2C485.839 1108.29 482.588 1107.34 478.207 1107.34H457.219L466.547 1097.69V1138.71ZM543.316 1119.53H577.766V1135.21H543.316V1119.53ZM544.8 1148.78H583.596V1165H524.024V1090.8H582.218V1107.02H544.8V1148.78ZM641.884 1165V1107.44H619.094V1090.8H685.556V1107.44H662.872V1165H641.884ZM777.014 1165L809.768 1090.8H830.438L863.298 1165H841.462L815.81 1101.08H824.078L798.426 1165H777.014ZM794.928 1150.58L800.334 1135.11H836.586L841.992 1150.58H794.928ZM869.248 1165V1090.8H886.526L917.266 1141.26H908.15L938.042 1090.8H955.32L955.532 1165H936.24L936.028 1120.16H939.314L916.948 1157.69H907.62L884.618 1120.16H888.646V1165H869.248Z" fill="black"/>
<rect x="706" y="1091" width="57" height="16" fill="black"/>
<rect x="706" y="1120" width="57" height="16" fill="#30EA03"/>
<rect x="706" y="1149" width="57" height="16" fill="black"/>
<ellipse rx="60.2014" ry="57.6112" transform="matrix(0.98453 -0.193578 0.213865 0.973071 910.727 443.565)" fill="black"/>
<path d="M744.901 490.749C806.584 434.571 916.944 535.647 928.206 574.451C939.469 613.255 877.126 698.413 792.873 756.482C708.62 814.55 540.181 980 540.181 980C540.181 980 635.647 767.365 628.854 625.644C625.93 564.646 682.046 547.995 744.901 490.749Z" fill="black"/>
<circle cx="810.676" cy="349.925" r="65.5" transform="rotate(-17.99 810.676 349.925)" fill="#EB41A9"/>
<ellipse rx="63.8958" ry="63.8679" transform="matrix(0.980668 -0.195678 0.195989 0.980606 159.291 295.094)" fill="#79858D"/>
<path d="M124.023 447.816C138.69 385.606 214.161 354.269 282.844 403.68C337.816 443.227 401.969 561.918 401.969 561.918L364.697 1004.18C364.697 1004.18 309.775 769.926 203.809 671.699C161.489 632.469 105.332 527.089 124.023 447.816Z" fill="#79858D"/>
<ellipse rx="71.5745" ry="72.9781" transform="matrix(0.997217 -0.0745535 0.0604847 0.998169 294.207 197.814)" fill="#DDFF00"/>
<path d="M232.013 366.15C257.682 297.622 346.109 272.721 414.804 338.5C469.786 391.148 522.986 534.91 522.986 534.91L414.804 1031.55C414.804 1031.55 389.308 757.947 286.649 631.5C245.649 581 199.304 453.473 232.013 366.15Z" fill="#DDFF00"/>
<path d="M638.194 423.103C697.545 351.958 828.824 453.905 845.768 496.704C862.711 539.504 806.257 643.681 722.866 719.633C639.475 795.584 478.904 1003.55 478.904 1003.55C478.904 1003.55 555.116 750.519 530.17 590.16C519.433 521.141 577.716 495.6 638.194 423.103Z" fill="#EB41A9"/>
<path d="M375.381 0C375.381 0 370.114 106.29 375.381 166.645C380.648 227 387.833 264.698 415.148 318.5C431.648 351 455.314 368.699 497.148 376.5C541.143 384.704 567.19 375.165 597.148 341.5C627.107 307.835 640.14 197.706 640.14 197.706C640.14 197.706 678.856 306.906 680.076 379.635C681.397 458.393 664.648 502.483 640.14 577.341C610.481 667.932 569.447 708.519 532.166 796.248C493.46 887.329 446.871 1034.88 446.871 1034.88C446.871 1034.88 464.498 810.331 424.684 675.455C401.549 597.081 360.231 563.302 339.883 484.158C316.965 395.021 306.961 340.341 312.765 248.488C319.024 149.451 375.381 0 375.381 0Z" fill="#30EA03"/>
<circle cx="516.382" cy="274.62" r="89.2391" fill="#30EA03"/>
</svg>
