<svg width="893" height="129" viewBox="0 0 893 129" fill="none" xmlns="http://www.w3.org/2000/svg">
<path d="M44.4511 104.484C38.5858 104.484 33.1444 103.565 28.1271 101.728C23.1804 99.82 18.8698 97.1347 15.1951 93.672C11.5911 90.2093 8.76444 86.146 6.71511 81.482C4.66578 76.7473 3.64111 71.5533 3.64111 65.9C3.64111 60.2467 4.66578 55.088 6.71511 50.424C8.76444 45.6893 11.5911 41.5907 15.1951 38.128C18.8698 34.6653 23.1804 32.0153 28.1271 30.178C33.1444 28.27 38.5858 27.316 44.4511 27.316C51.3058 27.316 57.4184 28.5173 62.7891 30.92C68.2304 33.3227 72.7531 36.7853 76.3571 41.308L63.0011 53.392C60.5984 50.5653 57.9484 48.41 55.0511 46.926C52.2244 45.442 49.0444 44.7 45.5111 44.7C42.4724 44.7 39.6811 45.1947 37.1371 46.184C34.5931 47.1733 32.4024 48.622 30.5651 50.53C28.7984 52.3673 27.3851 54.5933 26.3251 57.208C25.3358 59.8227 24.8411 62.72 24.8411 65.9C24.8411 69.08 25.3358 71.9773 26.3251 74.592C27.3851 77.2067 28.7984 79.468 30.5651 81.376C32.4024 83.2133 34.5931 84.6267 37.1371 85.616C39.6811 86.6053 42.4724 87.1 45.5111 87.1C49.0444 87.1 52.2244 86.358 55.0511 84.874C57.9484 83.39 60.5984 81.2347 63.0011 78.408L76.3571 90.492C72.7531 94.944 68.2304 98.4067 62.7891 100.88C57.4184 103.283 51.3058 104.484 44.4511 104.484ZM119.228 104.484C108.275 104.484 99.7243 101.481 93.5763 95.474C87.4283 89.4673 84.3543 80.952 84.3543 69.928V28.8H105.342V69.292C105.342 75.652 106.579 80.21 109.052 82.966C111.596 85.722 115.059 87.1 119.44 87.1C123.822 87.1 127.249 85.722 129.722 82.966C132.196 80.21 133.432 75.652 133.432 69.292V28.8H154.102V69.928C154.102 80.952 151.028 89.4673 144.88 95.474C138.732 101.481 130.182 104.484 119.228 104.484ZM168.32 103V28.8H189.308V86.358H224.712V103H168.32ZM241.876 103V45.442H219.086V28.8H285.548V45.442H262.864V103H241.876ZM326.467 104.484C315.513 104.484 306.963 101.481 300.815 95.474C294.667 89.4673 291.593 80.952 291.593 69.928V28.8H312.581V69.292C312.581 75.652 313.817 80.21 316.291 82.966C318.835 85.722 322.297 87.1 326.679 87.1C331.06 87.1 334.487 85.722 336.961 82.966C339.434 80.21 340.671 75.652 340.671 69.292V28.8H361.341V69.928C361.341 80.952 358.267 89.4673 352.119 95.474C345.971 101.481 337.42 104.484 326.467 104.484ZM375.559 103V28.8H409.479C416.263 28.8 422.093 29.8953 426.969 32.086C431.915 34.2767 435.731 37.4567 438.417 41.626C441.102 45.7247 442.445 50.6007 442.445 56.254C442.445 61.8367 441.102 66.6773 438.417 70.776C435.731 74.804 431.915 77.9133 426.969 80.104C422.093 82.224 416.263 83.284 409.479 83.284H387.219L396.547 74.486V103H375.559ZM421.457 103L403.013 75.97H425.379L443.929 103H421.457ZM396.547 76.712L387.219 67.066H408.207C412.588 67.066 415.839 66.112 417.959 64.204C420.149 62.296 421.245 59.646 421.245 56.254C421.245 52.7913 420.149 50.106 417.959 48.198C415.839 46.29 412.588 45.336 408.207 45.336H387.219L396.547 35.69V76.712ZM473.316 57.526H507.766V73.214H473.316V57.526ZM474.8 86.782H513.596V103H454.024V28.8H512.218V45.018H474.8V86.782ZM571.884 103V45.442H549.094V28.8H615.556V45.442H592.872V103H571.884ZM707.014 103L739.768 28.8H760.438L793.298 103H771.462L745.81 39.082H754.078L728.426 103H707.014ZM724.928 88.584L730.334 73.108H766.586L771.992 88.584H724.928ZM799.248 103V28.8H816.526L847.266 79.256H838.15L868.042 28.8H885.32L885.532 103H866.24L866.028 58.162H869.314L846.948 95.686H837.62L814.618 58.162H818.646V103H799.248Z" fill="black"/>
<rect x="636" y="29" width="57" height="16" fill="black"/>
<rect x="636" y="58" width="57" height="16" fill="#30EA03"/>
<rect x="636" y="87" width="57" height="16" fill="black"/>
</svg>
